<?xml version="1.0" encoding="UTF-8" standalone="no"?>
<!-- Created with Inkscape (http://www.inkscape.org/) -->

<svg
   width="124.86566mm"
   height="152.21121mm"
   viewBox="-13 -13 150.2732 183.183"
   version="1.1"
   id="svg1"
   xml:space="preserve"
   inkscape:version="1.3.2 (091e20e, 2023-11-25, custom)"
   sodipodi:docname="apple.svg"
   inkscape:export-filename="appleSinCapa.jpg"
   inkscape:export-xdpi="96"
   inkscape:export-ydpi="96"
   xmlns:inkscape="http://www.inkscape.org/namespaces/inkscape"
   xmlns:sodipodi="http://sodipodi.sourceforge.net/DTD/sodipodi-0.dtd"
   xmlns="http://www.w3.org/2000/svg"
   xmlns:svg="http://www.w3.org/2000/svg"><sodipodi:namedview
     id="namedview1"
     pagecolor="#ffffff"
     bordercolor="#000000"
     borderopacity="0.25"
     inkscape:showpageshadow="2"
     inkscape:pageopacity="0.0"
     inkscape:pagecheckerboard="0"
     inkscape:deskcolor="#d1d1d1"
     inkscape:document-units="mm"
     inkscape:zoom="1.0293026"
     inkscape:cx="287.08759"
     inkscape:cy="334.69264"
     inkscape:window-width="1920"
     inkscape:window-height="1094"
     inkscape:window-x="-11"
     inkscape:window-y="-11"
     inkscape:window-maximized="1"
     inkscape:current-layer="layer2" /><defs
     id="defs1" /><g
     inkscape:groupmode="layer"
     id="layer2"
     inkscape:label="Capa 2 propia"
     transform="matrix(4.6380644,0,0,4.6380644,-423.41737,-613.19631)"><path
       style="fill:#000000;stroke-width:0.264583"
       d="m 111.44316,132.20953 c -0.30577,0.023 -0.63937,0.0299 -0.97697,0.1136 -0.20468,0.0235 -0.44764,0.12248 -0.79521,0.27265 -0.25981,0.0932 -0.61801,0.33021 -0.93154,0.47712 l -0.81793,0.61345 -0.77249,0.70433 -0.68161,0.76113 -0.70433,1.03378 c -0.24922,0.36431 -0.38648,0.61612 -0.54529,0.92017 -0.15918,0.31377 -0.30623,0.85855 -0.31808,1.1133 -0.0738,0.49606 -0.013,0.79899 0.0455,1.17009 l 0.0454,0.2272 0.95425,-0.0341 c 0.44958,-0.0699 0.98769,-0.23729 1.2269,-0.32945 l 0.76113,-0.3976 c 0.40869,-0.27264 0.71179,-0.38625 0.9997,-0.65889 0.24934,-0.27235 0.54476,-0.52799 0.85201,-0.8293 0.27264,-0.32566 0.70433,-0.94667 0.94289,-1.35185 l 0.44305,-0.93154 c 0.13668,-0.44756 0.32268,-1.18688 0.3408,-1.63586 l 0.0113,-0.62481 z"
       id="path1"
       sodipodi:nodetypes="cccccccccccccccccccccc" /><path
       style="fill:#000000;stroke-width:0.264583"
       d="m 117.28228,143.3652 c -0.29937,-0.43492 -0.68597,-0.88465 -0.96561,-1.13601 -0.31728,-0.33782 -0.9055,-0.73415 -1.21553,-0.98834 -0.4675,-0.30346 -0.84823,-0.39002 -1.26098,-0.55664 -0.67631,-0.21357 -1.57007,-0.40116 -2.11299,-0.47713 l -0.90881,-0.0568 c -0.48568,0.0263 -0.95196,0.0574 -1.31778,0.11362 -0.68616,0.11461 -1.18246,0.29251 -1.69267,0.46577 l -1.02241,0.4544 -0.86338,0.31809 -0.568,0.19312 c -0.6133,0.0664 -0.83977,-0.008 -1.13602,-0.0568 l -0.84065,-0.3976 -1.3405,-0.55665 -0.64289,-0.21139 -0.69761,-0.12941 -0.840683,-0.0556 -0.84062,0.0102 c -0.463379,0.0185 -1.042758,0.0298 -1.476821,0.13632 -0.657021,0.15462 -1.241609,0.40836 -1.630825,0.65224 -0.430204,0.33053 -0.862218,0.65101 -1.300098,1.05178 -0.447876,0.4793 -1.01633,1.02302 -1.533621,1.77219 -0.412022,0.64558 -0.690011,1.12139 -0.920173,1.7949 -0.178464,0.46161 -0.619579,1.51216 -0.71569,2.397 -0.142822,0.85333 -0.18143,1.66065 -0.113601,2.45379 -0.02338,0.48057 0.0943,1.01362 0.170402,1.53362 l 0.397606,1.88579 0.579368,1.88578 c 0.195753,0.68508 0.448007,1.33698 0.647529,1.89715 0.192477,0.49006 0.462921,1.00206 0.681609,1.52226 0.274793,0.42099 0.469566,0.78197 0.852013,1.2837 l 0.67025,0.90881 0.965613,1.18146 1.090576,1.06786 c 0.365912,0.27938 0.704875,0.59938 1.215536,0.90881 l 0.897453,0.29536 c 0.364224,0.0843 0.809967,0.0698 1.147377,0.0341 l 0.88609,-0.21584 1.03378,-0.38625 1.20418,-0.43168 0.86337,-0.27265 c 0.34164,-0.0452 0.65655,-0.0971 1.11329,-0.1136 0.38007,0.0279 0.55715,0.0101 0.72705,0.0682 0.2754,0.0671 0.55916,0.18806 0.89746,0.30673 l 1.36322,0.4544 1.19281,0.44305 c 0.34582,0.13838 0.95783,0.27905 1.36322,0.18176 0.47132,-0.0305 0.78027,-0.18005 0.94289,-0.2386 l 0.33888,-0.19675 0.35409,-0.21221 c 0.36455,-0.30328 0.79022,-0.61179 1.06786,-0.8861 0.46728,-0.53658 0.88076,-1.04625 1.2269,-1.52226 0.41874,-0.47127 0.59079,-0.86718 0.89745,-1.2837 0.21683,-0.41293 0.42676,-0.75044 0.61254,-1.11085 0.56234,-1.09095 1.01125,-1.96632 1.39253,-2.98449 l 0.0965,-0.26696 -0.30672,-0.13632 -0.30672,-0.15336 c -0.21889,-0.10373 -0.4455,-0.24313 -0.68161,-0.41465 -0.5095,-0.37091 -0.8316,-0.67367 -1.13034,-0.95425 -0.49254,-0.52772 -0.71087,-0.87619 -0.95993,-1.29506 l -0.42876,-0.7222 -0.25853,-0.54446 -0.21219,-0.61309 -0.0775,-0.52861 -0.0602,-0.70526 -0.008,-0.83972 0.005,-0.76363 0.13083,-0.84951 0.22791,-0.76485 0.24922,-0.64381 c 0.30828,-0.52169 0.59635,-0.96767 0.93153,-1.3405 0.59107,-0.67782 1.11521,-1.1175 1.55635,-1.46546 z"
       id="path2"
       sodipodi:nodetypes="cccccccccccccccccccccccccccccccccccccccccccccccccccccscccccccccccccccccccc" /></g></svg>
