<?xml version="1.0" encoding="UTF-8" standalone="no"?>
<!-- Created with Inkscape (http://www.inkscape.org/) -->

<svg
   width="93.227859mm"
   height="50.150684mm"
   viewBox="0 0 93.227859 50.150684"
   version="1.1"
   id="svg1"
   xml:space="preserve"
   inkscape:version="1.3.2 (091e20e, 2023-11-25, custom)"
   sodipodi:docname="batmanSinCapa.svg"
   xmlns:inkscape="http://www.inkscape.org/namespaces/inkscape"
   xmlns:sodipodi="http://sodipodi.sourceforge.net/DTD/sodipodi-0.dtd"
   xmlns="http://www.w3.org/2000/svg"
   xmlns:svg="http://www.w3.org/2000/svg"><sodipodi:namedview
     id="namedview1"
     pagecolor="#ffffff"
     bordercolor="#000000"
     borderopacity="0.25"
     inkscape:showpageshadow="2"
     inkscape:pageopacity="0.0"
     inkscape:pagecheckerboard="0"
     inkscape:deskcolor="#d1d1d1"
     inkscape:document-units="mm"
     inkscape:zoom="1.509105"
     inkscape:cx="-13.584211"
     inkscape:cy="34.788833"
     inkscape:window-width="1920"
     inkscape:window-height="1094"
     inkscape:window-x="-11"
     inkscape:window-y="-11"
     inkscape:window-maximized="1"
     inkscape:current-layer="layer3" /><defs
     id="defs1" /><g
     inkscape:groupmode="layer"
     id="layer5"
     inkscape:label="Capa 5"
     transform="translate(-68.433212,-35.142916)"><path
       style="fill:#000000;fill-opacity:1;fill-rule:evenodd;stroke-width:0.0252746"
       id="path51"
       sodipodi:type="arc"
       sodipodi:cx="115.04714"
       sodipodi:cy="60.218258"
       sodipodi:rx="46.61393"
       sodipodi:ry="25.075342"
       sodipodi:start="5.9919224"
       sodipodi:end="5.9915401"
       sodipodi:arc-type="slice"
       d="M 159.69779,53.017568 A 46.61393,25.075342 0 0 1 128.43717,84.236788 46.61393,25.075342 0 0 1 70.399058,67.423539 46.61393,25.075342 0 0 1 101.64858,36.201105 46.61393,25.075342 0 0 1 159.69266,53.008386 l -44.64552,7.209872 z" /><path
       style="fill:#fff800;fill-opacity:1;stroke:#000000;stroke-width:0.0179039;stroke-dasharray:none"
       d="m 101.97668,54.613337 c -2.325313,-0.196729 -4.382751,-1.350654 -5.711542,-3.203364 -0.499865,-0.696962 -0.943791,-1.72582 -1.138936,-2.639664 -0.145632,-0.682012 -0.157226,-2.002412 -0.02285,-2.605254 0.210597,-0.944917 0.636755,-1.8703 1.220839,-2.650947 0.376952,-0.503812 1.442592,-1.510553 1.973133,-1.86407 0.814169,-0.542519 1.783866,-0.943 2.766236,-1.142461 0.4323,-0.08778 0.65216,-0.101414 1.6705,-0.103626 1.29203,-0.0029 1.53242,0.02541 2.35565,0.276541 1.99137,0.607466 3.6999,1.974347 4.70278,3.762359 l 0.20607,0.367404 -0.65782,3.643963 -0.65782,3.643962 -0.28705,0.274439 c -1.4165,1.354297 -2.99498,2.064893 -4.97775,2.24088 -0.5903,0.05238 -0.8205,0.05238 -1.44141,-1.85e-4 z"
       id="path52" /><path
       style="fill:#fff800;fill-opacity:1;stroke:#000000;stroke-width:0.0179039;stroke-dasharray:none"
       d=""
       id="path53" /><path
       style="fill:#fff800;fill-opacity:1;stroke:#000000;stroke-width:0.0179039;stroke-dasharray:none"
       d="m 101.1483,40.406977 c 0.0147,-0.01386 0.30052,-0.05925 0.6352,-0.10094 0.45206,-0.0563 0.77809,-0.06806 1.26813,-0.04574 1.15817,0.05278 1.1361,0.09595 -0.0488,0.09555 -0.63153,-2.19e-4 -1.31315,0.01686 -1.51471,0.03794 -0.20155,0.02108 -0.35444,0.02702 -0.33976,0.01317 z"
       id="path54" /><path
       style="fill:#fff800;fill-opacity:1;stroke:#000000;stroke-width:0.0179039;stroke-dasharray:none"
       d="m 101.1483,40.406977 c 0.0147,-0.01386 0.30052,-0.05925 0.6352,-0.10094 0.45206,-0.0563 0.77809,-0.06806 1.26813,-0.04574 1.15817,0.05278 1.1361,0.09595 -0.0488,0.09555 -0.63153,-2.19e-4 -1.31315,0.01686 -1.51471,0.03794 -0.20155,0.02108 -0.35444,0.02702 -0.33976,0.01317 z"
       id="path55" /><path
       style="fill:#fff800;fill-opacity:1;stroke:#000000;stroke-width:0.0179039;stroke-dasharray:none"
       d="m 101.1483,40.406977 c 0.0147,-0.01386 0.30052,-0.05925 0.6352,-0.10094 0.45206,-0.0563 0.77809,-0.06806 1.26813,-0.04574 1.15817,0.05278 1.1361,0.09595 -0.0488,0.09555 -0.63153,-2.19e-4 -1.31315,0.01686 -1.51471,0.03794 -0.20155,0.02108 -0.35444,0.02702 -0.33976,0.01317 z"
       id="path56" /><path
       style="fill:#fff800;fill-opacity:1;stroke:#000000;stroke-width:0.0179039;stroke-dasharray:none"
       d="m 101.97668,54.613337 c -2.325313,-0.196729 -4.382751,-1.350654 -5.711542,-3.203364 -0.499865,-0.696962 -0.943791,-1.72582 -1.138936,-2.639664 -0.145632,-0.682012 -0.157226,-2.002412 -0.02285,-2.605254 0.210597,-0.944917 0.636755,-1.8703 1.220839,-2.650947 0.376952,-0.503812 1.442592,-1.510553 1.973133,-1.86407 0.814169,-0.542519 1.783866,-0.943 2.766236,-1.142461 0.4323,-0.08778 0.65216,-0.101414 1.6705,-0.103626 1.29203,-0.0029 1.53242,0.02541 2.35565,0.276541 1.99137,0.607466 3.6999,1.974347 4.70278,3.762359 l 0.20607,0.367404 -0.65782,3.643963 -0.65782,3.643962 -0.28705,0.274439 c -1.4165,1.354297 -2.99498,2.064893 -4.97775,2.24088 -0.5903,0.05238 -0.8205,0.05238 -1.44141,-1.85e-4 z"
       id="path57" /><path
       style="fill:#fff800;fill-opacity:1;stroke:#000000;stroke-width:0.0179039;stroke-dasharray:none"
       d="m 101.97668,54.613337 c -2.325313,-0.196729 -4.382751,-1.350654 -5.711542,-3.203364 -0.499865,-0.696962 -0.943791,-1.72582 -1.138936,-2.639664 -0.145632,-0.682012 -0.157226,-2.002412 -0.02285,-2.605254 0.210597,-0.944917 0.636755,-1.8703 1.220839,-2.650947 0.376952,-0.503812 1.442592,-1.510553 1.973133,-1.86407 0.814169,-0.542519 1.783866,-0.943 2.766236,-1.142461 0.4323,-0.08778 0.65216,-0.101414 1.6705,-0.103626 1.29203,-0.0029 1.53242,0.02541 2.35565,0.276541 1.99137,0.607466 3.6999,1.974347 4.70278,3.762359 l 0.20607,0.367404 -0.65782,3.643963 -0.65782,3.643962 -0.28705,0.274439 c -1.4165,1.354297 -2.99498,2.064893 -4.97775,2.24088 -0.5903,0.05238 -0.8205,0.05238 -1.44141,-1.85e-4 z"
       id="path58" /><path
       style="fill:#fff800;fill-opacity:1;stroke:#000000;stroke-width:0.0179039;stroke-dasharray:none"
       d="m 101.97668,54.613337 c -2.325313,-0.196729 -4.382751,-1.350654 -5.711542,-3.203364 -0.499865,-0.696962 -0.943791,-1.72582 -1.138936,-2.639664 -0.145632,-0.682012 -0.157226,-2.002412 -0.02285,-2.605254 0.210597,-0.944917 0.636755,-1.8703 1.220839,-2.650947 0.376952,-0.503812 1.442592,-1.510553 1.973133,-1.86407 0.814169,-0.542519 1.783866,-0.943 2.766236,-1.142461 0.4323,-0.08778 0.65216,-0.101414 1.6705,-0.103626 1.29203,-0.0029 1.53242,0.02541 2.35565,0.276541 1.99137,0.607466 3.6999,1.974347 4.70278,3.762359 l 0.20607,0.367404 -0.65782,3.643963 -0.65782,3.643962 -0.28705,0.274439 c -1.4165,1.354297 -2.99498,2.064893 -4.97775,2.24088 -0.5903,0.05238 -0.8205,0.05238 -1.44141,-1.85e-4 z"
       id="path59" /><path
       style="fill:#1a1a1a;fill-opacity:1;stroke:#000000;stroke-width:0.0179039;stroke-dasharray:none"
       d=""
       id="path60" /><path
       style="fill:#000000;fill-opacity:1;stroke:#000000;stroke-width:0.00955261;stroke-dasharray:none"
       d="m 108.69515,53.650917 1.46585,-13.86951 3.07827,5.097734 3.95779,0.09185 v 0"
       id="path61" /><path
       style="fill:#000000;fill-opacity:1;stroke:#000000;stroke-width:0.00955261;stroke-dasharray:none"
       d="m 115.2426,49.655396 2.58966,4.684404 -9.2837,-0.82666 1.80788,-13.593957 5.42364,9.368808 z"
       id="path62" /><path
       style="fill:#000000;fill-opacity:1;stroke:#000000;stroke-width:0.00955261;stroke-dasharray:none"
       d="m 110.20986,39.735481 3.51803,6.016245 -5.13047,7.623637 z"
       id="path63" /></g><g
     inkscape:groupmode="layer"
     id="layer4"
     inkscape:label="Capa 4"
     style="fill:#fff800;fill-opacity:1"
     transform="translate(-68.433212,-35.142916)"><path
       style="fill:#fff800;fill-opacity:1;fill-rule:evenodd;stroke-width:0.0252746"
       id="path14"
       sodipodi:type="arc"
       sodipodi:cx="114.90997"
       sodipodi:cy="60.09668"
       sodipodi:rx="45.330048"
       sodipodi:ry="23.771154"
       sodipodi:start="0"
       sodipodi:end="5.9915401"
       sodipodi:open="true"
       sodipodi:arc-type="arc"
       d="M 160.24002,60.09668 A 45.330048,23.771154 0 0 1 118.21212,83.804678 45.330048,23.771154 0 0 1 70.061026,63.550779 45.330048,23.771154 0 0 1 105.07363,36.891921 45.330048,23.771154 0 0 1 158.32583,53.261799" /><path
       style="fill:#fff800;fill-opacity:1;fill-rule:evenodd;stroke-width:0.0252746"
       id="path15"
       sodipodi:type="arc"
       sodipodi:cx="114.28807"
       sodipodi:cy="66.201828"
       sodipodi:rx="0.069100685"
       sodipodi:ry="3.7670135"
       sodipodi:start="0"
       sodipodi:end="5.9915401"
       sodipodi:open="true"
       sodipodi:arc-type="arc"
       d="m 114.35717,66.201828 a 0.06910069,3.7670135 0 0 1 -0.0641,3.757005 0.06910069,3.7670135 0 0 1 -0.0734,-3.209634 0.06910069,3.7670135 0 0 1 0.0534,-4.224628 0.06910069,3.7670135 0 0 1 0.0812,2.594134" /></g><g
     inkscape:groupmode="layer"
     id="layer3"
     inkscape:label="Capa 3"
     transform="translate(-68.433212,-35.142916)"><path
       style="fill:#000000;fill-rule:evenodd;stroke-width:0.0252746"
       id="path10"
       sodipodi:type="arc"
       sodipodi:cx="114.70267"
       sodipodi:cy="60.356476"
       sodipodi:rx="41.11491"
       sodipodi:ry="21.30311"
       sodipodi:start="0"
       sodipodi:end="5.9915401"
       sodipodi:open="true"
       sodipodi:arc-type="arc"
       d="M 155.81758,60.356476 A 41.11491,21.30311 0 0 1 117.69775,81.602987 41.11491,21.30311 0 0 1 74.024122,63.451953 41.11491,21.30311 0 0 1 105.78098,39.560956 a 41.11491,21.30311 0 0 1 48.3004,14.670272" /><path
       style="fill:#ff0000;fill-rule:evenodd;stroke-width:0.0252746"
       id="path11"
       sodipodi:type="arc"
       sodipodi:cx="156.37039"
       sodipodi:cy="57.174004"
       sodipodi:rx="0.27640274"
       sodipodi:ry="0.19484554"
       sodipodi:start="0"
       sodipodi:end="5.9915401"
       sodipodi:open="true"
       sodipodi:arc-type="arc"
       d="m 156.64679,57.174004 a 0.27640274,0.19484554 0 0 1 -0.25626,0.194327 0.27640274,0.19484554 0 0 1 -0.29361,-0.166015 0.27640274,0.19484554 0 0 1 0.21349,-0.218515 0.27640274,0.19484554 0 0 1 0.32471,0.134179" /><path
       style="fill:#000000;fill-opacity:1;stroke:#000000;stroke-width:0"
       d="m 109.58923,81.447694 c -2.32055,-0.190672 -5.99109,-0.62665 -7.58342,-0.900748 C 91.896154,78.806713 83.513739,75.157894 78.560198,70.3412 c -2.807104,-2.729552 -4.309795,-5.378259 -4.774696,-8.416077 -0.467254,-3.053196 0.590934,-6.612855 2.802514,-9.427426 0.949511,-1.208391 3.496941,-3.592932 4.899145,-4.585883 6.684068,-4.733194 16.12198,-7.660746 27.756569,-8.609822 2.30638,-0.188137 8.73285,-0.187369 11.05611,0.0012 11.34739,0.921641 20.78358,3.844128 27.52621,8.525154 1.4747,1.023811 5.07535,4.452178 5.89391,5.611906 1.58816,2.250091 2.23542,4.168453 2.22392,6.59135 -0.0253,5.325946 -2.89348,9.644032 -8.90207,13.402129 -6.61752,4.138945 -14.32737,6.618941 -23.98579,7.715391 -2.05689,0.233502 -3.3636,0.28731 -7.66233,0.315531 -2.85041,0.01871 -5.46242,0.01103 -5.80446,-0.01709 z"
       id="path12" /><path
       style="fill:#c5c000;fill-opacity:1;stroke:#000000;stroke-width:0;stroke-dasharray:none"
       d="m 97.212676,42.123609 2.638524,-3.031085 2.24763,3.306638 -4.055507,2.204425 z"
       id="path91" /><path
       style="fill:#fff800;fill-opacity:1;stroke:#000000;stroke-width:0;stroke-dasharray:none"
       d="m 104.98166,46.578385 -7.03606,-6.659202 2.2965,-1.148138 z"
       id="path92" /><path
       style="fill:#fff800;fill-opacity:1;stroke:#000000;stroke-width:0;stroke-dasharray:none"
       d="m 109.42807,44.052481 0.19545,0.41333 0.6352,-5.373287 -3.12715,-0.137777 z"
       id="path93" /><path
       style="fill:#fff800;fill-opacity:1;stroke:#000000;stroke-width:0;stroke-dasharray:none"
       d="m 108.79287,39.138449 1.95446,0.688883 14.56074,0.229628 -12.99717,-1.791096 z"
       id="path94" /><path
       style="fill:#fff800;fill-opacity:1;stroke:#000000;stroke-width:0;stroke-dasharray:none"
       d="m 120.66623,50.527981 -1.17268,-12.905074 7.23151,2.342202 z"
       id="path95" /><path
       style="fill:#fff800;fill-opacity:1;stroke:#000000;stroke-width:0;stroke-dasharray:none"
       d="m 121.2037,39.965109 -5.61908,-1.285915 4.88616,-1.056287 0.53749,2.479979 z"
       id="path96" /><path
       style="fill:#fff800;fill-opacity:1;stroke:#000000;stroke-width:0;stroke-dasharray:none"
       d="m 155.55338,55.809417 1.41699,3.214787 0.0977,-1.194064 z"
       id="path97" /><path
       style="fill:#fff800;fill-opacity:1;stroke:#000000;stroke-width:0;stroke-dasharray:none"
       d="m 155.21136,55.028683 0.83064,2.893308 1.12381,-0.734809 z"
       id="path98" /><path
       style="fill:#fff800;fill-opacity:1;stroke:#000000;stroke-width:0;stroke-dasharray:none"
       d="m 160.2441,60.080491 0.0977,-0.964436 v -0.41333 l -0.0977,-0.551106 -0.0977,-0.459256 -0.24432,-0.826659 -0.34202,-1.056287 -0.29318,-0.734809 -0.34202,-1.010362 -0.3909,-0.734808 -0.43975,-0.321479 0.29316,5.878468 z"
       id="path99" /><path
       style="fill:#fff800;fill-opacity:1;stroke:#000000;stroke-width:0;stroke-dasharray:none"
       d="m 140.4063,75.695176 -0.3909,1.056288 -1.17267,1.148138 -5.47249,3.168861 -19.15374,1.23999 v -2.755532 z"
       id="path100" /><path
       style="fill:#fff800;fill-opacity:1;stroke:#000000;stroke-width:0;stroke-dasharray:none"
       d="m 89.492549,75.741096 0.830647,1.19407 0.977237,0.872585 4.641843,2.1585 19.300324,2.709606 1.46584,-3.306638 -22.427458,-4.822181 z"
       id="path101" /><path
       style="fill:#fff800;fill-opacity:1;stroke:#000000;stroke-width:0;stroke-dasharray:none"
       d="m 109.52013,51.393573 0.62191,-12.275265 -5.18256,13.314442 z"
       id="path102" /><path
       style="fill:#fff800;fill-opacity:1;stroke:#000000;stroke-width:0;stroke-dasharray:none"
       d="m 106.6179,41.001814 2.97133,10.391759 0.48371,-12.340213 z"
       id="path103" /><path
       style="fill:#fff800;fill-opacity:1;stroke:#000000;stroke-width:0;stroke-dasharray:none"
       d="m 104.82129,47.691512 5.04653,-4.90198 -0.39089,8.588074 z"
       id="path104" /><path
       style="fill:#fff800;fill-opacity:1;stroke:#000000;stroke-width:0;stroke-dasharray:none"
       d="m 109.91668,42.881383 -0.34202,8.450297 -0.0244,-8.335486 z"
       id="path105" /><path
       style="fill:#000000;fill-opacity:1;stroke:#000000;stroke-width:0;stroke-dasharray:none"
       d="m 88.768086,75.293254 4.098774,3.021479 -3.316829,-1.201547 z"
       id="path106"
       sodipodi:nodetypes="cccc" /><path
       style="fill:#000000;fill-opacity:1;stroke:#000000;stroke-width:0;stroke-dasharray:none"
       d="m 91.934006,77.730198 1.347462,0.909277 -2.867682,-1.201548 z"
       id="path107" /><path
       style="fill:#000000;fill-opacity:1;stroke:#000000;stroke-width:0;stroke-dasharray:none"
       d="m 92.797761,78.249786 0.414607,0.292265 -1.140158,-0.487112 z"
       id="path108" /><path
       style="fill:#000000;fill-opacity:1;stroke:#000000;stroke-width:0;stroke-dasharray:none"
       d="m 91.484845,77.892568 1.98665,0.828092 -0.984684,-0.633245 z"
       id="path109" /><path
       style="fill:#000000;fill-opacity:1;stroke:#000000;stroke-width:0;stroke-dasharray:none"
       d="m 140.9264,76.739735 -3.36866,1.234019 3.14408,-2.370619 z"
       id="path110" /><path
       style="fill:#000000;fill-opacity:1;stroke:#000000;stroke-width:0;stroke-dasharray:none"
       d="m 137.64562,77.922562 1.95447,-0.619992 -0.41533,-0.09185 z"
       id="path111" /><path
       style="fill:#000000;fill-opacity:1;stroke:#000000;stroke-width:0;stroke-dasharray:none"
       d="m 91.07025,77.730198 2.280317,0.909277 -1.762064,-1.234019 z"
       id="path112" /><path
       style="fill:#000000;fill-opacity:1;stroke:#000000;stroke-width:0;stroke-dasharray:none"
       d="m 139.95899,77.145662 -2.55674,1.006701 3.28229,-2.565466 z"
       id="path113" /><path
       style="fill:#fff800;fill-opacity:1;stroke:#000000;stroke-width:0;stroke-dasharray:none"
       d="m 109.79653,42.690474 -0.3455,8.962893 -9.39769,-6.949486 z"
       id="path119" /></g><g
     inkscape:label="Capa 1"
     inkscape:groupmode="layer"
     id="layer1"
     transform="translate(-68.433212,-35.142916)"><path
       style="fill:#ff0000;fill-rule:evenodd;stroke-width:0.0252746"
       id="path1"
       sodipodi:type="arc"
       sodipodi:cx="102.74826"
       sodipodi:cy="47.496658"
       sodipodi:rx="7.8774786"
       sodipodi:ry="7.2742333"
       sodipodi:start="0"
       sodipodi:end="5.9915401"
       sodipodi:open="true"
       sodipodi:arc-type="arc"
       d="m 110.62574,47.496658 a 7.8774786,7.2742333 0 0 1 -7.30363,7.254907 7.8774786,7.2742333 0 0 1 -8.367722,-6.197914 7.8774786,7.2742333 0 0 1 6.084512,-8.157903 7.8774786,7.2742333 0 0 1 9.25419,5.009362" /><path
       style="fill:#ff0000;fill-rule:evenodd;stroke-width:0.0252746"
       id="path1-2"
       sodipodi:type="arc"
       sodipodi:cx="127.33832"
       sodipodi:cy="47.635738"
       sodipodi:rx="7.8774786"
       sodipodi:ry="7.2742333"
       sodipodi:start="0"
       sodipodi:end="5.9915401"
       sodipodi:open="true"
       sodipodi:arc-type="arc"
       d="m 135.2158,47.635738 a 7.8774786,7.2742333 0 0 1 -7.30363,7.254907 7.8774786,7.2742333 0 0 1 -8.36772,-6.197914 7.8774786,7.2742333 0 0 1 6.0845,-8.157903 7.8774786,7.2742333 0 0 1 9.2542,5.009362" /><path
       style="fill:#ff0000;fill-rule:evenodd;stroke-width:0.0252746"
       id="path2"
       sodipodi:type="arc"
       sodipodi:cx="127.34811"
       sodipodi:cy="48.405937"
       sodipodi:rx="0.96740961"
       sodipodi:ry="0.51958811"
       sodipodi:start="0"
       sodipodi:end="5.9915401"
       sodipodi:open="true"
       sodipodi:arc-type="arc"
       d="m 128.31552,48.405937 a 0.96740961,0.51958811 0 0 1 -0.89694,0.518208 0.96740961,0.51958811 0 0 1 -1.02762,-0.442708 0.96740961,0.51958811 0 0 1 0.74722,-0.582708 0.96740961,0.51958811 0 0 1 1.13648,0.357812" /><path
       style="fill:#ff0000;fill-rule:evenodd;stroke-width:0.0252746"
       id="path3"
       sodipodi:type="arc"
       sodipodi:cx="128.73013"
       sodipodi:cy="47.756451"
       sodipodi:rx="1.3820137"
       sodipodi:ry="0.12989703"
       sodipodi:start="0"
       sodipodi:end="5.9915401"
       sodipodi:open="true"
       sodipodi:arc-type="arc"
       d="m 130.11215,47.756451 a 1.3820137,0.12989703 0 0 1 -1.28134,0.129552 1.3820137,0.12989703 0 0 1 -1.46802,-0.110677 1.3820137,0.12989703 0 0 1 1.06745,-0.145677 1.3820137,0.12989703 0 0 1 1.62355,0.08945" /><path
       style="fill:#000000;fill-opacity:1;stroke:#000000;stroke-width:0"
       d="m 119.60883,43.210063 2.21122,9.872175 -3.31683,3.37732 -3.59323,-8.053616 z"
       id="path4" /><path
       style="fill:#fff800;fill-opacity:1;fill-rule:evenodd;stroke-width:0.0252746"
       id="path72-3"
       sodipodi:type="arc"
       sodipodi:cx="127.36433"
       sodipodi:cy="47.789688"
       sodipodi:rx="7.9888659"
       sodipodi:ry="7.2332716"
       sodipodi:start="5.9919224"
       sodipodi:end="5.9915401"
       sodipodi:arc-type="slice"
       d="m 135.01672,45.712566 a 7.9888659,7.2332716 0 0 1 -5.35756,9.005544 7.9888659,7.2332716 0 0 1 -9.94679,-4.849976 7.9888659,7.2332716 0 0 1 5.35566,-9.006471 7.9888659,7.2332716 0 0 1 9.94781,4.848254 l -7.65151,2.079771 z" /><path
       style="fill:#000000;fill-opacity:1;stroke:#000000;stroke-width:0"
       d="m 108.55272,53.212132 1.65841,-9.092792 1.93483,2.987636 -0.2764,6.105156 z"
       id="path5" /><path
       style="fill:#fff800;fill-opacity:1;stroke:#000000;stroke-width:0"
       d="m 101.77589,54.620637 c -3.692031,-0.388153 -6.553992,-3.224448 -6.795222,-6.734284 -0.141559,-2.059644 0.609366,-3.871084 2.240185,-5.403904 1.557734,-1.464136 3.333987,-2.150715 5.544147,-2.143006 1.39746,0.0046 2.17492,0.17295 3.48498,0.753385 1.21185,0.536924 2.64469,1.799278 3.32457,2.928984 l 0.44943,0.746797 -0.65891,3.669699 -0.65892,3.6697 -0.64749,0.602397 c -1.55514,1.446859 -3.9023,2.160498 -6.28277,1.910232 z"
       id="path6" /><path
       style="fill:#fff800;fill-opacity:1;stroke:#000000;stroke-width:0"
       d="m 126.20466,54.75183 c -0.47687,-0.06423 -1.20113,-0.23427 -1.60947,-0.377868 -0.8099,-0.284821 -2.22712,-1.106203 -2.58669,-1.499194 -0.13913,-0.152058 -0.55685,-1.72176 -1.0855,-4.079132 l -0.85933,-3.831961 0.39217,-0.714435 c 0.85147,-1.551103 2.95812,-3.091032 4.88939,-3.574078 1.22391,-0.306119 3.10811,-0.250665 4.37971,0.128895 2.92121,0.871956 4.80434,2.972692 5.26899,5.877861 0.19418,1.214038 0.19291,1.413372 -0.0147,2.312446 -0.34278,1.484688 -0.973,2.57344 -2.11308,3.650476 -1.77324,1.675205 -4.19061,2.439799 -6.66152,2.10699 z"
       id="path7" /><path
       style="fill:#fff800;fill-opacity:1;stroke:#000000;stroke-width:0.0179039;stroke-dasharray:none"
       d="m 101.97668,54.614775 c -3.463314,-0.2951 -6.273877,-2.736775 -6.870482,-5.968748 -0.121014,-0.655557 -0.131766,-1.763787 -0.02273,-2.343813 0.409594,-2.179057 2.087684,-4.243119 4.253739,-5.232155 1.064623,-0.486107 1.817393,-0.645285 3.201373,-0.67693 1.20213,-0.02749 1.73576,0.03471 2.58383,0.301245 1.35811,0.42679 2.28484,0.986841 3.33446,2.015104 0.5403,0.529313 0.79939,0.856728 1.2338,1.559251 l 0.30948,0.500463 -0.6532,3.648645 -0.65318,3.648652 -0.57344,0.529601 c -1.30106,1.201606 -2.78816,1.84081 -4.69521,2.018137 -0.55184,0.05134 -0.8513,0.05145 -1.44844,5.54e-4 z"
       id="path68" /><path
       style="fill:#fff800;fill-opacity:1;stroke:#000000;stroke-width:0.0179039;stroke-dasharray:none"
       d=""
       id="path69" /><path
       style="fill:#fff800;fill-opacity:1;stroke:#000000;stroke-width:0.0179039;stroke-dasharray:none"
       d=""
       id="path70" /><path
       style="fill:#fff800;fill-opacity:1;stroke:#000000;stroke-width:0;stroke-dasharray:none"
       d=""
       id="path71" /><path
       style="fill:#fff800;fill-opacity:1;fill-rule:evenodd;stroke-width:0.0252746"
       id="path72"
       sodipodi:type="arc"
       sodipodi:cx="102.70963"
       sodipodi:cy="47.565792"
       sodipodi:rx="7.9888659"
       sodipodi:ry="7.2332716"
       sodipodi:start="5.9919224"
       sodipodi:end="5.9915401"
       sodipodi:arc-type="slice"
       d="m 110.36202,45.48867 a 7.9888659,7.2332716 0 0 1 -5.35756,9.005544 7.9888659,7.2332716 0 0 1 -9.946779,-4.849976 7.9888659,7.2332716 0 0 1 5.355659,-9.006471 7.9888659,7.2332716 0 0 1 9.94781,4.848254 l -7.65152,2.079771 z" /><path
       style="fill:#fff800;fill-opacity:1;stroke:#000000;stroke-width:0;stroke-dasharray:none"
       d="m 109.72124,43.088045 0.19544,2.388127 -12.899444,-2.709606 1.270401,-2.112574 9.723453,-2.434053 z"
       id="path73" /><path
       style="fill:#fff800;fill-opacity:1;stroke:#000000;stroke-width:0;stroke-dasharray:none"
       d="m 120.07989,44.236183 0.2443,2.939234 13.19263,-3.949595 -1.66129,-2.434053 -6.00997,-1.515543 -5.17933,3.168862 z"
       id="path74" /><path
       style="fill:#fff800;fill-opacity:1;stroke:#000000;stroke-width:0;stroke-dasharray:none"
       d="m 119.59128,39.092524 0.24431,2.204425 0.8795,-2.020723 z"
       id="path75" /><path
       style="fill:#fff800;fill-opacity:1;stroke:#000000;stroke-width:0;stroke-dasharray:none"
       d="m 115.78008,44.78729 1.22153,0.09185 0.83065,-1.607394 z"
       id="path76" /><path
       style="fill:#fff800;fill-opacity:1;stroke:#000000;stroke-width:0;stroke-dasharray:none"
       d="m 110.74733,39.781407 -1.2704,-0.82666 -0.43976,1.010362 z"
       id="path77" /><path
       style="fill:#fff800;fill-opacity:1;stroke:#000000;stroke-width:0;stroke-dasharray:none"
       d="m 117.17303,44.622696 -0.17275,0.276026 -0.86375,-0.01623 z"
       id="path78" /><path
       style="fill:#fff800;fill-opacity:1;stroke:#000000;stroke-width:0;stroke-dasharray:none"
       d="m 119.93331,40.011035 -0.68406,-0.505181 1.73458,0.09185 z"
       id="path79" /><path
       style="fill:#fff800;fill-opacity:1;stroke:#000000;stroke-width:0;stroke-dasharray:none"
       d="m 133.80902,43.762128 -2.07302,-2.045884 0.79466,0.09742 z"
       id="path80" /><path
       style="fill:#fff800;fill-opacity:1;stroke:#000000;stroke-width:0;stroke-dasharray:none"
       d="m 133.60172,43.729651 h 0.34551 l -1.52022,-2.110825 -1.27837,1.68866 z"
       id="path81" /><path
       style="fill:#fff800;fill-opacity:1;stroke:#000000;stroke-width:0;stroke-dasharray:none"
       d="m 97.531164,41.716244 -1.520219,1.851036 1.278369,0.519589 z"
       id="path82" /><path
       style="fill:#000000;fill-opacity:1;stroke:#000000;stroke-width:0;stroke-dasharray:none"
       d="m 110.18542,39.942149 -0.80621,13.639882 z"
       id="path83" /><path
       style="fill:#000000;fill-opacity:1;stroke:#000000;stroke-width:0;stroke-dasharray:none"
       d="m 110.13656,40.148811 -0.6352,12.468784 1.85675,-9.276957 z"
       id="path84" /><path
       style="fill:#000000;fill-opacity:1;stroke:#000000;stroke-width:0;stroke-dasharray:none"
       d="m 109.72124,50.895385 0.65963,-4.73033 1.24597,1.21703 z"
       id="path85" /><path
       style="fill:#000000;fill-opacity:1;stroke:#000000;stroke-width:0;stroke-dasharray:none"
       d="m 110.03883,49.333917 -0.34202,1.446657 0.83064,0.665917 -0.0977,-1.676279 z"
       id="path86" /><path
       style="fill:#000000;fill-opacity:1;stroke:#000000;stroke-width:0;stroke-dasharray:none"
       d="m 119.64013,40.102886 1.36814,13.915435 -3.3226,-7.210308 z"
       id="path87" /></g><g
     inkscape:groupmode="layer"
     id="layer2"
     inkscape:label="Capa 2"
     transform="translate(-68.433212,-35.142916)"><path
       style="fill:#fff800;fill-opacity:1;stroke:#000000;stroke-width:0"
       d="m 104.68308,40.482226 5.38986,-0.779383 9.53589,0.129894 7.46287,0.519589 -7.04827,1.298971 -0.4146,-1.948454 -2.48762,5.065985 -3.86965,-0.259794 -3.04043,-4.806191 -0.4146,1.558766 z"
       id="path8" /><path
       style="fill:#fff800;fill-opacity:1;stroke:#000000;stroke-width:0"
       d="m 89.633362,75.919042 c -1.06937,-0.772783 -1.97263,-1.936909 -2.211224,-2.987631 -0.231719,-1.758371 0.09174,-2.770926 0.552806,-3.55006 0.621905,-0.854424 1.068528,-1.477107 2.301666,-1.880547 0.808597,-0.29853 1.936926,-0.54618 2.935758,-0.519582 0.484601,-0.03868 1.093455,0.10426 1.628295,0.295916 0.416443,0.14923 1.185225,0.369166 1.442109,0.514459 l 1.484139,0.816297 1.802719,1.296011 1.10561,0.844324 0.82413,-1.127813 0.82168,-0.711561 0.66624,-0.445774 0.5904,-0.287206 0.64303,-0.118562 1.29833,-0.08953 1.36103,0.09184 c 0.62437,0.15591 1.23966,0.299711 2.10511,0.777073 l 1.14276,0.823613 1.07431,1.026242 0.9983,1.204926 0.8437,1.324801 0.72376,1.855841 1.00376,2.560661 2.07303,-4.026808 c 0.6662,-1.155177 1.19907,-2.300704 2.24513,-3.521476 l 0.9524,-0.964227 c 0.46928,-0.423073 1.61421,-0.870944 2.23754,-1.06295 0.78823,-0.1242 1.47984,-0.218619 2.72719,-0.18978 l 1.21501,0.196103 1.01154,0.490753 c 0.43369,0.305495 1.01123,0.703969 1.38383,1.009464 0.22886,0.242121 0.57957,0.913506 0.94187,1.444171 l 2.18465,-1.54165 1.77578,-1.20127 c 0.42459,-0.264833 0.82027,-0.427045 1.73429,-0.855022 0.61261,-0.176404 1.31819,-0.269324 1.93079,-0.29109 l 0.8526,0.0505 0.83246,0.224378 c 0.42378,0.240808 0.78114,0.292706 1.65003,0.830251 l 0.72727,0.597185 0.4899,0.548776 c 0.28835,0.41334 0.51368,1.012639 0.47156,1.425979 l -0.0242,0.991345 -0.22669,1.016201 -0.61455,1.130061 c -0.4253,0.992035 -5.55419,5.715233 -5.97949,6.426943 l -1.79657,-2.208254 -13.40554,2.208254 -7.32467,-0.259794 -15.478557,-1.81856 -6.910068,-2.597943 6.771857,2.597943 z"
       id="path9"
       sodipodi:nodetypes="cccccscccccccccccccccccccccccccccccccccccccccccccccccc" /><path
       style="fill:#000000;fill-opacity:1;stroke:#000000;stroke-width:0;stroke-dasharray:none"
       d="m 137.36771,78.152363 2.97132,-1.104125 2.14213,-1.039177 -1.58932,-0.909276 -1.58931,1.623706 z"
       id="path114" /><path
       style="fill:#000000;fill-opacity:1;stroke:#000000;stroke-width:0;stroke-dasharray:none"
       d="m 112.21506,44.703881 6.91006,-0.324747 -2.69492,3.117531 z"
       id="path115" /><path
       style="fill:#000000;fill-opacity:1;stroke:#000000;stroke-width:0;stroke-dasharray:none"
       d="m 110.28024,40.157485 -0.62191,8.18351 2.48763,-1.104124 z"
       id="path116" /><path
       style="fill:#000000;fill-opacity:1;stroke:#000000;stroke-width:0;stroke-dasharray:none"
       d="m 140.26993,75.55442 -0.9674,1.363918 2.31487,-1.071647 z"
       id="path117" /><path
       style="fill:#000000;fill-opacity:1;stroke:#000000;stroke-width:0;stroke-dasharray:none"
       d="m 137.64411,78.054939 3.35241,-3.548577 0.20628,1.242905 z"
       id="path118"
       sodipodi:nodetypes="cccc" /></g><g
     inkscape:groupmode="layer"
     id="layer6"
     inkscape:label="Capa 6"
     transform="translate(-68.433212,-35.142916)"><path
       style="fill:#000000;fill-opacity:1;stroke:#000000;stroke-width:0;stroke-dasharray:none"
       d="m 109.7701,42.996194 -0.29317,10.149542 4.25096,-7.991042 -3.51803,-5.235511 -0.83065,13.823585 4.34868,-8.450298 z"
       id="path88" /><path
       style="fill:#000000;fill-opacity:1;stroke:#000000;stroke-width:0;stroke-dasharray:none"
       d="m 112.79951,44.603587 5.52136,0.04591 -2.29649,5.419212 z"
       id="path89" /><path
       style="fill:#000000;fill-opacity:1;stroke:#000000;stroke-width:0;stroke-dasharray:none"
       d="m 119.59128,40.148811 1.31926,12.950999 -4.69072,-0.367404 z"
       id="path90" /><path
       style="fill:#fff800;fill-opacity:1;stroke:#000000;stroke-width:0;stroke-dasharray:none"
       d="m 110.10749,39.995114 -0.58736,10.87887 -7.11738,-3.831961 -2.453071,-5.553097 z"
       id="path124" /></g></svg>
