<?xml version="1.0" encoding="UTF-8" standalone="no"?>
<!-- Created with Inkscape (http://www.inkscape.org/) -->

<svg
   width="141.20721mm"
   height="141.112mm"
   viewBox="-14 -15 168.207 168.09358"
   version="1.1"
   id="svg1"
   xml:space="preserve"
   inkscape:version="1.3.2 (091e20e, 2023-11-25, custom)"
   sodipodi:docname="halterofilia.svg"
   inkscape:export-filename="haterofilia1.jpg"
   inkscape:export-xdpi="96"
   inkscape:export-ydpi="96"
   xmlns:inkscape="http://www.inkscape.org/namespaces/inkscape"
   xmlns:sodipodi="http://sodipodi.sourceforge.net/DTD/sodipodi-0.dtd"
   xmlns="http://www.w3.org/2000/svg"
   xmlns:svg="http://www.w3.org/2000/svg"><sodipodi:namedview
     id="namedview1"
     pagecolor="#ffffff"
     bordercolor="#000000"
     borderopacity="0.25"
     inkscape:showpageshadow="2"
     inkscape:pageopacity="0.0"
     inkscape:pagecheckerboard="0"
     inkscape:deskcolor="#d1d1d1"
     inkscape:document-units="mm"
     inkscape:zoom="1.4556538"
     inkscape:cx="244.22016"
     inkscape:cy="259.33364"
     inkscape:window-width="1920"
     inkscape:window-height="1094"
     inkscape:window-x="-11"
     inkscape:window-y="-11"
     inkscape:window-maximized="1"
     inkscape:current-layer="layer2" /><defs
     id="defs1"><inkscape:path-effect
       effect="bspline"
       id="path-effect8"
       is_visible="true"
       lpeversion="1.3"
       weight="33.333333"
       steps="2"
       helper_size="0"
       apply_no_weight="true"
       apply_with_weight="true"
       only_selected="false"
       uniform="false" /></defs><g
     inkscape:groupmode="layer"
     id="layer2"
     inkscape:label="Capa 2 propia"
     style="fill:#ff0000"
     transform="matrix(1.7432298,0,0,1.7432298,-112.30483,-188.25763)"><path
       style="fill:#ff0000;stroke-width:0.264583"
       d="m 80.778293,108.08997 2.538381,2.40985 -16.162086,16.32274 -2.538378,-2.37772 z"
       id="path8" /><path
       style="fill:#ff0000;stroke-width:0.264583"
       d="m 68.600499,116.99036 0.899679,0.80329 4.787577,-4.85184 -0.771152,-0.67476 z"
       id="path9" /><path
       style="fill:#ff0000;stroke-width:0.264583"
       d="m 66.287041,110.43556 4.43413,4.62692 -0.835416,0.83541 -5.462334,-5.46233 2.506248,-2.44198 5.430202,5.4302 -0.867548,0.73902 -4.626916,-4.46626 z"
       id="path10" /><path
       style="fill:#ff0000;stroke-width:0.264583"
       d="m 71.171011,113.77722 0.514101,0.54624 0.674759,-0.67476 -0.835414,-0.73902 z"
       id="path11" /><path
       style="fill:#ff0000;stroke-width:0.264583"
       d="m 84.152088,111.46376 2.441985,2.40986 -16.29061,16.35487 -2.441985,-2.40985 z"
       id="path12" /><path
       style="fill:#ff0000;stroke-width:0.264583"
       d="m 87.622278,114.83756 2.409854,2.50625 -16.29061,16.19421 -2.474118,-2.37772 z"
       id="path13" /><path
       style="fill:#ff0000;stroke-width:0.264583"
       d="m 135.57214,112.9427 4.81671,4.86215 0.84065,-0.79521 -4.83943,-4.93031 z"
       id="path14" /><path
       style="fill:#ff0000;stroke-width:0.264583"
       d="m 142.95624,108.17143 -5.45288,5.362 0.65889,0.74977 4.74855,-4.63494 0.77249,0.70432 -4.72583,4.93031 0.72705,0.68161 5.63464,-5.61192 z"
       id="path15" /><path
       style="fill:#ff0000;stroke-width:0.264583"
       d="m 126.62977,110.62835 2.50625,-2.50625 16.19422,16.16209 -2.37772,2.5705 z"
       id="path16" /><path
       style="fill:#ff0000;stroke-width:0.264583"
       d="m 125.69797,111.46376 -2.47412,2.40986 16.35487,16.35487 2.34559,-2.44198 z"
       id="path17" /><path
       style="fill:#ff0000;stroke-width:0.264583"
       d="m 119.88219,117.34381 2.47411,-2.53838 16.25848,16.22634 -2.40985,2.50625 z"
       id="path18" /><path
       style="fill:#ff0000;stroke-width:0.264583"
       d="m 64.525704,172.62898 16.358629,16.31319 2.453794,-2.54468 -16.31319,-16.35863 z"
       id="path19" /><path
       style="fill:#ff0000;stroke-width:0.264583"
       d="m 67.933752,169.17549 2.544675,-2.4538 16.176865,16.26775 -2.362911,2.54468 z"
       id="path20" /><path
       style="fill:#ff0000;stroke-width:0.264583"
       d="m 71.341799,165.90376 2.499233,-2.45379 16.085987,16.17686 -2.317472,2.54468 z"
       id="path21" /><path
       style="fill:#ff0000;stroke-width:0.264583"
       d="m 69.41985,179.18065 -0.787217,0.80328 4.867902,4.78758 0.819351,-0.86755 z"
       id="path22" /><path
       style="fill:#ff0000;stroke-width:0.264583"
       d="m 70.062478,181.1246 -5.542664,5.4302 2.313462,2.2974 5.622991,-5.63906 -0.803286,-0.6105 -4.691181,4.75545 -0.851483,-0.83542 4.594789,-4.65905 z"
       id="path23" /><path
       style="fill:#ff0000;stroke-width:0.264583"
       d="m 136.0764,163.35595 2.60265,2.50624 -16.25849,16.29061 -2.53837,-2.57051 z"
       id="path24" /><path
       style="fill:#ff0000;stroke-width:0.264583"
       d="m 139.48233,166.8904 2.34559,2.37772 -16.19422,16.29061 -2.37772,-2.47412 z"
       id="path25" /><path
       style="fill:#ff0000;stroke-width:0.264583"
       d="m 142.98465,170.29632 2.44198,2.37772 -16.387,16.19422 -2.40986,-2.44198 16.22635,-16.35488 z"
       id="path26" /><path
       style="fill:#ff0000;stroke-width:0.264583"
       d="m 140.41414,179.13245 0.73902,0.77116 -4.72331,4.81971 -0.80329,-0.77116 z"
       id="path27" /><path
       style="fill:#ff0000;stroke-width:0.264583"
       d="m 137.45805,183.3738 5.5266,5.39807 2.34559,-2.21707 -5.59086,-5.65512 -0.86755,0.80328 4.88397,4.78758 -0.77115,0.83542 -4.75544,-4.72332 z"
       id="path28" /><path
       style="fill:#ff0000;stroke-width:0.264583"
       d="m 102.46863,148.5 -20.130197,20.22108 0.727048,0.63617 20.357409,-20.1302 z"
       id="path30" /><path
       style="fill:#ff0000;stroke-width:0.264583"
       d="m 104.46802,149.9541 0.59073,0.72705 -20.493727,20.58461 -0.863372,-0.81794 z"
       id="path31" /><path
       style="fill:#ff0000;stroke-width:0.264583"
       d="m 80.975212,167.58507 -0.681609,0.6816 4.90759,4.77127 0.636169,-0.77249 z"
       id="path32" /><path
       style="fill:#ff0000;stroke-width:0.264583"
       d="m 83.065481,168.08491 -1.408657,1.27234 0.908812,0.59073 1.272336,-1.27234 z"
       id="path33" /><path
       style="fill:#ff0000;stroke-width:0.264583"
       d="m 103.92273,149.81778 21.40254,21.44798 0.90882,-0.81794 -21.49342,-21.40253 z"
       id="path34" /><path
       style="fill:#ff0000;stroke-width:0.264583"
       d="m 128.77876,167.58507 0.86338,0.86337 -4.77127,4.77126 -0.90881,-0.95425 z"
       id="path35" /><path
       style="fill:#ff0000;stroke-width:0.264583"
       d="m 85.882802,124.64366 -0.817931,-0.86337 -4.86215,4.86215 0.863373,0.63617 z"
       id="path36" /><path
       style="fill:#ff0000;stroke-width:0.264583"
       d="m 82.156669,128.09715 22.038711,22.03871 0.68161,-0.90881 -21.94783,-21.99327 z"
       id="path37" /><path
       style="fill:#ff0000;stroke-width:0.264583"
       d="m 102.15055,148.86352 0.77249,-0.72705 0.49985,0.81793 z"
       id="path38" /><path
       style="fill:#ff0000;stroke-width:0.264583"
       d="m 104.46802,149.81778 -7.543143,7.4977 0.590728,0.31809 7.406825,-7.49771 z"
       id="path39" /><path
       style="fill:#ff0000;stroke-width:0.264583"
       d="m 82.974602,169.58445 20.584608,-20.40284 -0.54529,-0.59073 -20.311963,20.49373 z"
       id="path40" /><path
       style="fill:#ff0000;stroke-width:0.264583"
       d="m 105.51316,147.0459 20.76637,-20.53917 -0.86338,-0.86337 -20.85725,20.76637 1.2269,0.77249 z"
       id="path41" /><path
       style="fill:#ff0000;stroke-width:0.264583"
       d="m 124.00749,124.59822 4.86215,4.72583 0.68161,-0.72705 -4.72582,-4.68039 z"
       id="path42" /><path
       style="fill:#ff0000;stroke-width:0.264583"
       d="m 106.14933,148.04559 21.26621,-21.17534 0.86337,0.9997 -0.59072,0.27264 -20.94814,20.9027 -0.77249,-1.18146 z"
       id="path43" /><path
       style="fill:#ff0000;stroke-width:0.264583"
       d="m 83.656211,126.46129 22.265909,22.12959 0.86337,-0.59073 -22.629433,-22.49311 z"
       id="path44" /><path
       style="fill:#ff0000;stroke-width:0.264583"
       d="m 84.701345,126.00688 20.766365,20.67549 -0.18176,-0.31808 z"
       id="path45" /><path
       style="fill:#ff0000;stroke-width:0.264583"
       d="M 96.016063,137.23072 84.246939,125.55248 83.837972,125.916 95.425336,137.59425 Z"
       id="path46" /><path
       style="fill:#ff0000;stroke-width:0.264583"
       d="m 107.14902,148.45456 20.44829,20.22108 -0.36353,1.2269 -21.67518,-21.62975 z"
       id="path47" /><path
       style="fill:#ff0000;stroke-width:0.264583"
       d="m 125.7301,185.49447 16.19421,-16.22635 -2.34559,-2.40985 -16.22634,16.19421 z"
       id="path48" /></g></svg>
