<?xml version="1.0" encoding="UTF-8" standalone="no"?>
<!-- Created with Inkscape (http://www.inkscape.org/) -->

<svg
   width="63.480999mm"
   height="77.992996mm"
   viewBox="-2 -1 70.534443 86.658884"
   version="1.1"
   id="svg1"
   inkscape:version="1.3.2 (091e20e, 2023-11-25, custom)"
   sodipodi:docname="logoPropio.svg"
   xmlns:inkscape="http://www.inkscape.org/namespaces/inkscape"
   xmlns:sodipodi="http://sodipodi.sourceforge.net/DTD/sodipodi-0.dtd"
   xmlns="http://www.w3.org/2000/svg"
   xmlns:svg="http://www.w3.org/2000/svg">
  <sodipodi:namedview
     id="namedview1"
     pagecolor="#ffffff"
     bordercolor="#000000"
     borderopacity="0.25"
     inkscape:showpageshadow="2"
     inkscape:pageopacity="0.0"
     inkscape:pagecheckerboard="0"
     inkscape:deskcolor="#d1d1d1"
     inkscape:document-units="mm"
     showborder="true"
     borderlayer="true"
     inkscape:zoom="0.75455247"
     inkscape:cx="160.35995"
     inkscape:cy="415.47806"
     inkscape:window-width="1920"
     inkscape:window-height="1094"
     inkscape:window-x="-11"
     inkscape:window-y="-11"
     inkscape:window-maximized="1"
     inkscape:current-layer="layer1" />
  <defs
     id="defs1">
    <rect
       x="-506.26035"
       y="131.2036"
       width="348.55099"
       height="410.83954"
       id="rect10" />
    <rect
       x="-328.009"
       y="170.96227"
       width="8.7247744"
       height="97.408691"
       id="rect3" />
  </defs>
  <g
     inkscape:label="Capa 1"
     inkscape:groupmode="layer"
     id="layer1"
     transform="translate(-62.316377,-38.922077)">
    <path
       style="fill:#ff0000;fill-rule:evenodd;stroke-width:0.264583"
       id="path1"
       sodipodi:type="arc"
       sodipodi:cx="95.201302"
       sodipodi:cy="69.603897"
       sodipodi:rx="32.785713"
       sodipodi:ry="30.68182"
       sodipodi:start="5.9919224"
       sodipodi:end="5.9915401"
       sodipodi:arc-type="slice"
       d="M 126.60615,60.793239 A 32.785713,30.68182 0 0 1 104.61912,98.992617 32.785713,30.68182 0 0 1 63.798258,78.420173 32.785713,30.68182 0 0 1 85.777481,40.216862 32.785713,30.68182 0 0 1 126.60254,60.782004 l -31.401238,8.821893 z" />
    <path
       sodipodi:type="spiral"
       style="fill:none;fill-rule:evenodd;stroke:#000000;stroke-width:0.264583"
       id="path2"
       sodipodi:cx="-104.84415"
       sodipodi:cy="65.220779"
       sodipodi:expansion="1"
       sodipodi:revolution="3"
       sodipodi:radius="18.304434"
       sodipodi:argument="-16.926716"
       sodipodi:t0="0"
       d="m -104.84415,65.220779 c -0.31645,0.86147 -1.31737,-0.0016 -1.43182,-0.525973 -0.31014,-1.421127 1.24472,-2.392062 2.48377,-2.337664 2.21638,0.09731 3.53706,2.4019 3.24351,4.441557 -0.4308,2.993279 -3.57105,4.705657 -6.39935,4.149354 -3.76967,-0.741463 -5.88369,-4.743962 -5.0552,-8.35714 1.04257,-4.546815 5.91855,-7.066484 10.31493,-5.961045 5.324616,1.338835 8.252008,7.094045 6.866893,12.272724 -1.632311,6.102894 -8.270113,9.439238 -14.230513,7.772735 -6.88152,-1.924042 -10.62761,-9.446559 -8.67858,-16.188307 2.21461,-7.660401 10.62327,-11.816784 18.146095,-9.584426 8.439473,2.504368 13.006538,11.800186 10.490272,20.103891 -2.793533,9.218686 -12.977247,14.196727 -22.061687,11.396117"
       transform="translate(181.98701,-6.3116883)" />
    <path
       sodipodi:type="spiral"
       style="fill:none;fill-rule:evenodd;stroke:#000000;stroke-width:0.264583"
       id="path3"
       sodipodi:cx="-88.272171"
       sodipodi:cy="83.313271"
       sodipodi:expansion="1"
       sodipodi:revolution="3"
       sodipodi:radius="29.282467"
       sodipodi:argument="-18.411757"
       sodipodi:t0="0"
       d="m -88.272171,83.313271 c 1.329708,0.622429 -0.182992,2.099504 -1.034519,2.210062 -2.307586,0.299603 -3.642083,-2.311664 -3.385605,-4.2791 0.458778,-3.519282 4.312957,-5.308499 7.523681,-4.561148 4.711866,1.096767 7.010895,6.336553 5.736691,10.768261 -1.698314,5.90677 -8.367432,8.727818 -14.012843,6.912234 -7.104174,-2.284727 -10.452094,-10.401627 -8.087774,-17.257423 2.863499,-8.303288 12.437656,-12.180591 20.502001,-9.26332 9.503553,3.437902 13.911739,14.474829 10.438864,23.746585 -4.009573,10.704608 -16.512762,15.644658 -26.991166,11.614408 -11.906229,-4.579425 -17.378809,-18.551232 -12.789949,-30.235749 5.148,-13.108262 20.59009,-19.113858 33.480327,-13.965492 14.310607,5.715662 20.849584,22.629247 15.141035,36.724909"
       transform="translate(181.98701,-6.3116883)" />
    <text
       xml:space="preserve"
       transform="scale(0.26458333)"
       id="text3"
       style="font-size:96px;font-family:Impact;-inkscape-font-specification:Impact;white-space:pre;shape-inside:url(#rect3);display:inline;fill:#ff0000;stroke:#000000;stroke-width:0" />
    <text
       xml:space="preserve"
       style="font-size:25.4px;font-family:Impact;-inkscape-font-specification:Impact;fill:#ff0000;stroke:#000000;stroke-width:0"
       x="-43.831169"
       y="83.313271"
       id="text4"><tspan
         sodipodi:role="line"
         id="tspan4"
         style="stroke-width:0"
         x="-43.831169"
         y="83.313271" /></text>
    <text
       xml:space="preserve"
       style="font-size:25.4px;font-family:Impact;-inkscape-font-specification:Impact;fill:#ff0000;stroke:#000000;stroke-width:0"
       x="-109.75325"
       y="41.376625"
       id="text5"><tspan
         sodipodi:role="line"
         id="tspan5"
         style="stroke-width:0"
         x="-109.75325"
         y="41.376625" /><tspan
         sodipodi:role="line"
         style="stroke-width:0"
         id="tspan6"
         x="-109.75325"
         y="73.126625" /></text>
    <text
       xml:space="preserve"
       style="font-size:25.4px;font-family:Impact;-inkscape-font-specification:Impact;fill:#ff0000;stroke:#000000;stroke-width:0"
       x="-106.5974"
       y="37.519478"
       id="text7"><tspan
         sodipodi:role="line"
         id="tspan7"
         style="stroke-width:0"
         x="-106.5974"
         y="37.519478" /></text>
    <text
       xml:space="preserve"
       style="font-size:16.9333px;font-family:Impact;-inkscape-font-specification:Impact;white-space:pre;inline-size:69.4352;display:inline;fill:#ff0000;stroke:#000000;stroke-width:0"
       x="62.415596"
       y="123.07791"
       id="text8"><tspan
         x="62.415596"
         y="123.07791"
         id="tspan2"><tspan
           style="fill:#000080"
           id="tspan1">  RED  EYE</tspan></tspan></text>
    <text
       xml:space="preserve"
       style="font-size:16.9333px;font-family:Impact;-inkscape-font-specification:Impact;fill:#ff0000;stroke:#000000;stroke-width:0"
       x="-51.358662"
       y="125.53247"
       id="text9"><tspan
         sodipodi:role="line"
         id="tspan9"
         style="stroke-width:0"
         x="-51.358662"
         y="125.53247" /></text>
    <text
       xml:space="preserve"
       transform="scale(0.26458333)"
       id="text10"
       style="font-size:64px;font-family:Impact;-inkscape-font-specification:Impact;white-space:pre;shape-inside:url(#rect10);display:inline;fill:#ff0000;stroke:#000000;stroke-width:0" />
  </g>
</svg>
