<?xml version="1.0" encoding="UTF-8" standalone="no"?>
<!-- Created with Inkscape (http://www.inkscape.org/) -->

<svg
   width="289.81631"
   height="140.18608"
   version="1.1"
   viewBox="0 0 289.81631 140.18608"
   id="svg32"
   sodipodi:docname="nike.svg"
   inkscape:version="1.3.2 (091e20e, 2023-11-25, custom)"
   xmlns:inkscape="http://www.inkscape.org/namespaces/inkscape"
   xmlns:sodipodi="http://sodipodi.sourceforge.net/DTD/sodipodi-0.dtd"
   xmlns="http://www.w3.org/2000/svg"
   xmlns:svg="http://www.w3.org/2000/svg">
  <defs
     id="defs32" />
  <sodipodi:namedview
     id="namedview32"
     pagecolor="#ffffff"
     bordercolor="#000000"
     borderopacity="0.25"
     inkscape:showpageshadow="2"
     inkscape:pageopacity="0.0"
     inkscape:pagecheckerboard="0"
     inkscape:deskcolor="#d1d1d1"
     inkscape:zoom="1.4140234"
     inkscape:cx="202.61334"
     inkscape:cy="-13.083235"
     inkscape:window-width="1920"
     inkscape:window-height="1094"
     inkscape:window-x="-11"
     inkscape:window-y="-11"
     inkscape:window-maximized="1"
     inkscape:current-layer="svg32" />
  <g
     fill="#ff00ff"
     id="g24"
     transform="matrix(0.31504061,0,0,0.31504061,-108.36115,-128.47145)">
    <g
       fill="#ff00ff"
       id="g6">
      <path
         d="m 565.69,410.18 -92.716,228.86 h 58.094 l 40.49,-100.34 -6.4549,99.171 h 62.789 l 91.542,-229.44 h -55.16 l -44.011,99.758 7.0417,-99.758 z"
         id="path1" />
      <path
         d="m 626.13,409.01 h -61.028 l -6.4549,21.125 54.573,-4.6945 10.563,-17.018 z"
         id="path2" />
      <path
         d="m 641.97,462.41 21.712,-52.813 48.705,1.7604 z"
         id="path3" />
      <path
         d="m 785.74,408.42 -57.507,0.29341 -91.836,230.03 57.801,-0.29341 93.009,-230.62 z"
         id="path4" />
      <path
         d="m 951.22,410.18 -92.423,93.303 3.8143,121.47 0.58681,13.497 -57.801,0.58681 -3.5209,-95.944 -38.73,95.944 -58.094,-0.88021 91.836,-229.15 h 58.974 l -27.287,67.777 61.028,-67.777 66.603,-0.58681 z"
         id="path5" />
      <path
         d="m 859.09,497.03 4.1077,138.49 -8.8022,-4.6945 z"
         id="path6" />
    </g>
    <g
       fill="#ffffff"
       stroke="#ff00ff"
       id="g17">
      <ellipse
         cx="1091.2"
         cy="419.35001"
         rx="11.59"
         ry="9.7557001"
         stroke-width="3.602"
         id="ellipse6" />
      <ellipse
         cx="501.29001"
         cy="691.07001"
         rx="11.59"
         ry="9.7557001"
         stroke-width="3.602"
         id="ellipse7" />
      <g
         stroke-width="2.002"
         id="g10">
        <path
           d="m 496.89,686.41 c 0.0692,3.1985 0.13831,6.397 0.20747,9.5954"
           id="path7" />
        <path
           d="m 496.87,687.39 c 2.0738,-0.0325 4.1476,-0.0649 6.2215,-0.0974"
           id="path8" />
        <path
           d="m 496.94,691.29 c 1.9191,-0.0346 3.8382,-0.0692 5.7573,-0.10374"
           id="path9" />
        <path
           d="m 502.17,687.32 c 0.85224,-0.008 1.7045,-0.0151 2.2893,0.1937 0.58486,0.20876 0.90236,0.63382 1.0438,1.0905 0.14144,0.45668 0.10688,0.94497 -0.0865,1.3462 -0.19332,0.40123 -0.54539,0.71539 -1.0997,0.90304 -0.55431,0.18766 -1.3108,0.24878 -2.0674,0.30991"
           id="path10" />
      </g>
      <path
         d="m 501.69,691.1 c 1.0269,0.5288 2.0537,1.0576 2.6968,1.4862 0.6431,0.4286 0.90243,0.75714 1.0407,1.2326 0.13832,0.47545 0.15562,1.0978 0.16427,1.4609 0.009,0.36307 0.009,0.4668 0.009,0.57053"
         stroke-width="1.902"
         id="path11" />
      <ellipse
         cx="1091.4"
         cy="419.56"
         rx="11.59"
         ry="9.7557001"
         stroke-width="3.602"
         id="ellipse11" />
      <g
         stroke-width="2.002"
         id="g16">
        <path
           transform="translate(590.1,-271.51)"
           d="m 496.89,686.41 c 0.0692,3.1985 0.13831,6.397 0.20747,9.5954"
           id="path12" />
        <path
           transform="translate(590.1,-271.51)"
           d="m 496.87,687.39 c 2.0738,-0.0325 4.1476,-0.0649 6.2215,-0.0974"
           id="path13" />
        <path
           transform="translate(590.1,-271.51)"
           d="m 496.94,691.29 c 1.9191,-0.0346 3.8382,-0.0692 5.7573,-0.10374"
           id="path14" />
        <path
           transform="translate(590.1,-271.51)"
           d="m 502.17,687.32 c 0.85224,-0.008 1.7045,-0.0151 2.2893,0.1937 0.58486,0.20876 0.90236,0.63382 1.0438,1.0905 0.14144,0.45668 0.10688,0.94497 -0.0865,1.3462 -0.19332,0.40123 -0.54539,0.71539 -1.0997,0.90304 -0.55431,0.18766 -1.3108,0.24878 -2.0674,0.30991"
           id="path15" />
        <path
           transform="translate(590.1,-271.51)"
           d="m 501.69,691.1 c 1.0269,0.5288 2.0537,1.0576 2.6968,1.4862 0.6431,0.4286 0.90243,0.75714 1.0407,1.2326 0.13832,0.47545 0.15562,1.0978 0.16427,1.4609 0.009,0.36307 0.009,0.4668 0.009,0.57053"
           id="path16" />
      </g>
    </g>
    <path
       d="m 953.53,409.13 h 114.11 l -16.183,38.589 -60.996,-0.82987 z"
       id="path17" />
    <path
       d="m 863.07,622.41 87.552,-213.28 41.079,36.515 0.82987,0.41494 -61.411,154.77 -13.278,41.909 -26.556,-4.5643 -29.461,-0.82987 z"
       id="path18" />
    <path
       d="m 908.71,600.41 -46.888,37.344 51.037,-0.41494 z"
       id="path19" />
    <path
       d="m 951.87,409.13 26.971,15.353 -7.8838,15.768 -15.768,-12.448 -2.4896,-15.768 z"
       id="path20" />
    <path
       d="m 948.55,408.71 118.26,0.82988 -12.033,19.917 -99.585,-14.108 z"
       id="path21" />
    <path
       d="m 1029.5,495.85 -17.012,42.324 -59.751,-1.2448 16.183,-43.154 3.3195,1.2448 z"
       id="path22" />
    <path
       d="m 1002.5,594.61 -24.066,55.187 -76.349,-9.5436 29.461,-46.473 z"
       id="path23" />
    <path
       d="m 463.9,560.17 -38.174,47.303 c -20.278,22.539 -31.449,38.87 -41.494,53.112 -10.512,11.092 -15.214,24.518 -22.407,38.174 -5.4042,9.719 -10.915,24.859 -14.108,39.834 -5.5325,16.598 -4.7026,35.408 0.82988,49.793 6.4033,13.237 9.12527,17.86673 17.92707,27.8964 5.79846,6.3624 15.3486,14.385 24.896,20.24694 8.13971,4.42791 22.16085,9.50366 34.03534,13.93787 13.32466,2.04733 26.98766,2.93179 40.15359,1.81929 l 41.494,-5.8091 c 35.987,-9.0767 69.55867,-20.48534 113.23128,-36.18507 l 641.11874,-261.73993 2.4896,-1.6598 -4.9792,-0.82988 -11.618,1.6598 -257.74975,66.04973 -419.92,102.07 c -8.1025,1.75628 -16.20499,4.34273 -24.30749,4.90998 l -11.49861,0.91383 -12.28498,-1.08854 c -15.521,-2.122 -27.11699,-4.7054 -42.215,-12.34 l -10.7,-8.06533 -7.81739,-6.05746 -11.19363,-12.59283 -6.45038,-10.26098 c -2.37587,-5.96873 -4.12676,-12.91604 -3.91839,-22.1762 l 0.65642,-11.20968 2.41778,-14.63912 c 2.87362,-14.52101 6.46651,-29.52154 14.92321,-47.76461 z"
       id="path24"
       sodipodi:nodetypes="ccccccccccccccccccccccccccccccc" />
  </g>
  <g
     inkscape:groupmode="layer"
     id="layer1"
     inkscape:label="Layer 1"
     transform="translate(-343.95931,-712.58505)" />
</svg>
