<?xml version="1.0" encoding="UTF-8" standalone="no"?>
<!-- Created with Inkscape (http://www.inkscape.org/) -->

<svg
   version="1.1"
   id="svg1"
   width="1200"
   height="900"
   viewBox="0 0 1200 900"
   sodipodi:docname="superman.svg"
   inkscape:version="1.3.2 (091e20e, 2023-11-25, custom)"
   xmlns:inkscape="http://www.inkscape.org/namespaces/inkscape"
   xmlns:sodipodi="http://sodipodi.sourceforge.net/DTD/sodipodi-0.dtd"
   xmlns="http://www.w3.org/2000/svg"
   xmlns:svg="http://www.w3.org/2000/svg">
  <defs
     id="defs1">
    <inkscape:path-effect
       effect="bspline"
       id="path-effect21"
       is_visible="true"
       lpeversion="1.3"
       weight="33.333333"
       steps="2"
       helper_size="0"
       apply_no_weight="true"
       apply_with_weight="true"
       only_selected="false"
       uniform="false" />
    <inkscape:path-effect
       effect="bspline"
       id="path-effect20"
       is_visible="true"
       lpeversion="1.3"
       weight="33.333333"
       steps="2"
       helper_size="0"
       apply_no_weight="true"
       apply_with_weight="true"
       only_selected="false"
       uniform="false" />
    <inkscape:path-effect
       effect="bspline"
       id="path-effect19"
       is_visible="true"
       lpeversion="1.3"
       weight="33.333333"
       steps="2"
       helper_size="0"
       apply_no_weight="true"
       apply_with_weight="true"
       only_selected="false"
       uniform="false" />
    <inkscape:path-effect
       effect="bspline"
       id="path-effect18"
       is_visible="true"
       lpeversion="1.3"
       weight="33.333333"
       steps="2"
       helper_size="0"
       apply_no_weight="true"
       apply_with_weight="true"
       only_selected="false"
       uniform="false" />
    <inkscape:path-effect
       effect="bspline"
       id="path-effect17"
       is_visible="true"
       lpeversion="1.3"
       weight="33.333333"
       steps="2"
       helper_size="0"
       apply_no_weight="true"
       apply_with_weight="true"
       only_selected="false"
       uniform="false" />
  </defs>
  <sodipodi:namedview
     id="namedview1"
     pagecolor="#ffffff"
     bordercolor="#000000"
     borderopacity="0.25"
     inkscape:showpageshadow="2"
     inkscape:pageopacity="0.0"
     inkscape:pagecheckerboard="0"
     inkscape:deskcolor="#d1d1d1"
     inkscape:zoom="10.647457"
     inkscape:cx="405.21413"
     inkscape:cy="182.71969"
     inkscape:window-width="1920"
     inkscape:window-height="1094"
     inkscape:window-x="-11"
     inkscape:window-y="-11"
     inkscape:window-maximized="1"
     inkscape:current-layer="layer1" />
  <g
     inkscape:groupmode="layer"
     id="layer1"
     inkscape:label="Image 1 propia">
    <path
       style="fill:#010101;stroke:#000000;stroke-width:0;stroke-opacity:1;fill-opacity:1;stroke-dasharray:none"
       d="m 974.38017,24.439197 194.45103,189.138133 -13.8135,15.93861 -9.5632,-12.75089 L 962.69185,40.377804 Z"
       id="path1" />
    <path
       style="fill:#010101;fill-opacity:1;stroke:#000000;stroke-width:0;stroke-dasharray:none;stroke-opacity:1"
       d="M 971.19244,24.439197 H 224.20307 l 8.50059,18.063755 735.30106,1.062573 z"
       id="path2" />
    <path
       style="fill:#010101;fill-opacity:1;stroke:#000000;stroke-width:0;stroke-dasharray:none;stroke-opacity:1"
       d="M 236.95396,39.31523 43.565525,228.45336 29.752066,214.63991 224.20307,25.501771 Z"
       id="path3" />
    <path
       style="fill:#010101;fill-opacity:1;stroke:#000000;stroke-width:0;stroke-dasharray:none;stroke-opacity:1"
       d="M 29.752066,217.82763 601.41677,878.74852 1169.8937,213.57733 1158.2054,200.82645 600.35419,853.24675 56.316411,215.70248 Z"
       id="path4" />
    <path
       style="fill:#010101;fill-opacity:1;stroke:#000000;stroke-width:0;stroke-dasharray:none;stroke-opacity:1"
       d="m 257.14286,83.943329 2.12514,14.876033 61.62928,6.375448 24.4392,-22.314054 z"
       id="path5" />
    <path
       style="fill:#010101;fill-opacity:1;stroke:#000000;stroke-width:0;stroke-dasharray:none;stroke-opacity:1"
       d="M 252.89256,82.880756 113.6954,218.8902 194.451,315.58442 184.88784,280.51948 138.13459,221.01535 269.89374,91.381346 259.268,87.131051 Z"
       id="path6" />
    <path
       style="fill:#010101;fill-opacity:1;stroke:#000000;stroke-width:0;stroke-dasharray:none;stroke-opacity:1"
       d="m 196.57615,318.77214 c 9.30568,-16.98541 11.96733,-48.43817 21.25148,-72.25502 l 31.87721,-58.44156 25.50177,-39.31523 36.12751,-35.06493 32.93979,-28.689497 v -3.187721 l -34.00236,-2.125148 -20.18891,28.689496 -39.31522,37.19008 -27.62692,19.12632 -12.75089,39.31524 -22.31405,53.12869 -6.37544,25.50177 -46.75325,-63.75443 54.19126,80.75561 z"
       id="path7"
       sodipodi:nodetypes="ccccccccccccccccc" />
    <path
       style="fill:#010101;fill-opacity:1;stroke:#000000;stroke-width:0;stroke-dasharray:none;stroke-opacity:1"
       d="m 973.31759,108.38253 1.06258,113.69539 -167.88666,-1.06257 -13.57223,-44.6815 c -8.87018,-11.70372 -21.62277,-32.3136 -34.24359,-44.5747 L 714.04959,106.25737 677.53724,85.504962 597.16647,82.880756 493.03424,85.005904 444.5543,90.185946 386.534,131.17837 c -7.52415,3.7414 -11.6068,19.00134 -14.17945,27.69424 l -6.82917,17.51464 4.2503,37.19008 32.93979,31.87722 50.80464,12.43413 75.44274,10.62574 70.32877,0.31675 65.87957,1.06257 h 66.94215 l 66.94215,13.81346 80.75561,30.81464 40.3778,26.56435 21.25148,36.12751 6.37544,10.62573 138.13458,-167.88666 -77.5679,-77.56788 -15.93858,-17.00118 2.12515,27.62692 64.81693,70.12987 -111.57018,122.19597 -7.43801,-13.81345 -21.25149,-18.06375 -23.91642,-16.8769 -43.02572,-18.18804 C 806.08025,263.82819 770.26584,256.97919 735.30106,250.76741 l -130.69657,-1.06257 -69.0673,1.06257 -87.13105,-11.68831 -42.50295,-20.1889 -15.93861,-18.06375 -0.57295,-26.95338 17.57413,-26.17531 39.31524,-24.43921 69.46576,-19.25914 71.85655,-0.92975 60.5667,3.18771 52.06612,18.06377 46.75324,25.50176 28.06153,33.68561 3.81569,46.00743 8.50059,14.87603 212.51476,-1.06257 -5.31287,-81.81818 z"
       id="path8"
       sodipodi:nodetypes="ccccccccccccccccccccccccccccccccccccccccccccccccccccccc" />
    <path
       style="fill:#010101;fill-opacity:1;stroke:#000000;stroke-width:0;stroke-dasharray:none;stroke-opacity:1"
       d="m 761.86541,80.755608 95.63164,-1.062574 -14.87603,21.251476 -20.18891,-1.062574 13.81346,15.938604 7.43802,-8.50059 28.6895,-3.18772 -10.62575,22.31405 -25.50177,20.1889 -30.81464,-38.25265 -34.00236,-22.314053 z"
       id="path9"
       sodipodi:nodetypes="cccccccccccc" />
    <path
       style="fill:#010101;fill-opacity:1;stroke:#000000;stroke-width:0;stroke-dasharray:none;stroke-opacity:1"
       d="m 749.11452,612.0425 -149.8229,173.19953 -156.19835,-184.88784 61.62928,19.12633 52.06612,6.37544 55.25383,5.31287 57.37899,-4.25029 60.5667,-8.50059 -30.81464,24.43919 -80.7556,4.2503 -43.56553,-1.06258 -80.75561,-11.68831 104.13223,124.32114 100.94451,-112.63283 z"
       id="path10" />
    <path
       style="fill:#010101;fill-opacity:1;stroke:#000000;stroke-width:0;stroke-dasharray:none;stroke-opacity:1"
       d="m 252.89256,385.71429 119.00827,141.32231 61.62928,-31.87721 56.31641,3.18772 c 19.78352,4.20118 41.77349,2.88624 56.31641,20.1889 l 42.14387,31.00247 114.8514,5.92197 73.58325,-12.2196 56.3164,-21.78276 c 1.41677,-16.64699 4.48133,-43.3365 2.92209,-52.86304 l -31.87721,-26.83 -98.55373,-10.36009 -110.55555,-8.00153 c -53.12869,-3.18772 11.89982,-27.22671 -159.38607,-9.56316 l -161.46334,-22.81312 24.86826,20.12445 80.32654,19.19079 78.63046,5.31286 88.19363,8.50059 101.60862,4.78159 119.40673,9.03187 38.25265,10.62574 7.43801,11.68831 -0.53128,17.00119 -6.90672,12.75088 -22.04842,13.01653 -30.28334,5.57851 -97.49115,9.03188 -61.62928,-7.43802 -35.06494,-29.75206 c -15.95549,-12.42539 -25.98183,-14.77124 -37.19008,-19.12633 l -70.12987,-4.2503 -42.06281,1.62056 -32.75749,19.31969 -0.17677,3.06434 -74.82583,-85.63387 z"
       id="path11"
       sodipodi:nodetypes="ccccccccccccccccccccccccccccccccccccc" />
    <path
       style="fill:#ffeb00;fill-opacity:1;stroke:#000000;stroke-width:0;stroke-dasharray:none;stroke-opacity:1"
       d="m 258.20543,100.94451 41.44038,-2.125151 -41.44038,44.628101 -30.81464,41.44038 c -12.46272,19.45714 -21.89234,38.27572 -27.62692,56.31641 l -11.24817,41.88051 -57.2722,-61.18915 z"
       id="path12"
       sodipodi:nodetypes="cccccccc" />
    <path
       style="fill:#ffeb00;fill-opacity:1;stroke:#000000;stroke-width:0;stroke-dasharray:none;stroke-opacity:1"
       d="M 689.61039,120.07084 C 619.16167,93.551918 600.97736,97.784915 590.79102,96.959855 c -39.86094,-3.764367 -83.50122,4.932375 -104.63223,9.297525 -27.69675,6.18155 -12.12043,1.04871 -44.65938,13.81347 l -22.28183,11.37155 c -6.44508,5.18089 -14.88699,10.14189 -21.64602,19.71816 -5.75804,6.62857 -11.50249,18.57697 -11.11421,32.26557 l 4.88656,20.78693 13.4967,15.73972 39.31523,17.00118 56.29983,11.62385 75.43721,0.62797 99.90405,1.56163 c 20.02654,-0.0626 22.69009,-0.24073 59.70394,0 2.70473,0.19847 4.68906,0.57705 6.39667,1.02481 l 57.15795,10.66351 83.94333,26.56434 44.6281,28.6895 c 10.47836,13.10507 20.19976,18.77213 22.31405,31.8772 l 112.63283,-129.634 -70.12988,-65.87957 3.18773,90.31877 -205.00124,-5.38838 -4.86073,-22.67304 c -4.60373,-12.159 -10.95774,-26.48441 -7.96567,-27.19242 l -22.31404,-31.87721 c -8.53836,-8.45809 -18.90592,-16.41731 -32.93979,-23.37662 z"
       id="path13"
       sodipodi:nodetypes="cccccccccccccccccccccccccccc" />
    <path
       style="fill:#ffeb00;fill-opacity:1;stroke:#000000;stroke-width:0;stroke-dasharray:none;stroke-opacity:1"
       d="m 837.30814,116.88312 9.56317,-15.93861 -26.56434,-2.125148 z"
       id="path14"
       sodipodi:nodetypes="cccc" />
    <path
       style="fill:#ffeb00;fill-opacity:1;stroke:#000000;stroke-width:0;stroke-dasharray:none;stroke-opacity:1"
       d="m 294.33294,411.21606 77.56789,87.13105 44.6281,-19.12633 h 60.5667 l 38.05376,2.31299 c 18.11874,1.50421 27.6425,6.69197 35.34851,12.65877 l 43.48085,34.96921 48.22467,6.37544 c 19.34424,1.61508 38.68847,-1.22695 58.03271,-2.12515 22.48824,-1.77096 40.59645,-3.54191 60.5667,-5.31287 l 37.44791,-9.30534 19.93108,-24.69702 -9.82881,-25.23613 -28.42385,-8.76623 -31.87721,-4.25029 -109.4451,-7.43802 -90.31877,-8.50059 -91.38135,-5.31287 -54.19126,-5.31287 z"
       id="path15"
       sodipodi:nodetypes="cccccccccccccccccccc" />
    <path
       style="fill:#ffeb00;fill-opacity:1;stroke:#000000;stroke-width:0;stroke-dasharray:none;stroke-opacity:1"
       d="m 701.2987,638.60685 -104.13223,121.13341 -87.13105,-107.31995 -14.87603,-18.06376 83.94333,13.81346 45.69067,1.06258 45.69067,-3.18773 z"
       id="path16" />
    <path
       style="fill:#c80000;fill-opacity:1;stroke:#000000;stroke-width:0;stroke-dasharray:none;stroke-opacity:1"
       d="m 232.70366,42.502952 c 0,0 0,42.502951 0,42.502951"
       id="path17"
       inkscape:path-effect="#path-effect17"
       inkscape:original-d="M 232.70366,42.502952 V 85.005903" />
    <path
       style="fill:#c80000;fill-opacity:1;stroke:#000000;stroke-width:0;stroke-dasharray:none;stroke-opacity:1"
       d="m 968.00472,81.818182 c 0,0 -3.18772,-37.190083 -3.18772,-37.190083"
       id="path18"
       inkscape:path-effect="#path-effect18"
       inkscape:original-d="M 968.00472,81.818182 964.817,44.628099" />
    <path
       style="fill:#c80000;fill-opacity:1;stroke:#000000;stroke-width:0;stroke-dasharray:none;stroke-opacity:1"
       d="m 234.82881,44.628099 c 0,0 4.25029,38.252657 4.25029,38.252657 z"
       id="path19"
       inkscape:path-effect="#path-effect19"
       inkscape:original-d="m 234.82881,44.628099 4.25029,38.252657 z" />
    <path
       style="fill:#c80000;fill-opacity:1;stroke:#000000;stroke-width:0;stroke-dasharray:none;stroke-opacity:1"
       d="m 234.82881,47.815821 c 0,0 12.75088,31.877213 12.75088,31.877213"
       id="path20"
       inkscape:path-effect="#path-effect20"
       inkscape:original-d="m 234.82881,47.815821 12.75088,31.877213" />
    <path
       style="fill:#c80000;fill-opacity:1;stroke:#000000;stroke-width:0;stroke-dasharray:none;stroke-opacity:1"
       d="m 82.880756,244.39197 c 0,0 -25.501771,-30.81464 -25.501771,-30.81464"
       id="path21"
       inkscape:path-effect="#path-effect21"
       inkscape:original-d="M 82.880756,244.39197 57.378985,213.57733" />
    <path
       style="fill:#010101;fill-opacity:1;stroke:#000000;stroke-width:0;stroke-dasharray:none;stroke-opacity:1"
       d="m 770.366,79.693034 87.13105,1.062574 9.56317,24.439192 -3.18773,19.12634 -28.68949,22.31404 -8.50059,-11.68831 18.06375,-28.68949 V 93.506494 Z"
       id="path22"
       sodipodi:nodetypes="ccccccccc" />
    <path
       style="fill:#010101;fill-opacity:1;stroke:#000000;stroke-width:0;stroke-dasharray:none;stroke-opacity:1"
       d="M 1085.7053,217.89241 972.06311,106.5043 l 1.69055,35.50144 15.77842,9.01624 4.50811,3.00541 77.38941,74.38396 z"
       id="path23"
       sodipodi:nodetypes="ccccccc" />
    <path
       style="fill:#010101;fill-opacity:1;stroke:#000000;stroke-width:0;stroke-dasharray:none;stroke-opacity:1"
       d="m 710.78006,656.68264 40.57307,-45.08119 -39.82171,9.01624 -6.76218,24.79465 0.75135,-6.01082 -10.51894,11.27029 6.76218,9.76759 z"
       id="path24" />
    <path
       style="fill:#010101;fill-opacity:1;stroke:#000000;stroke-width:0;stroke-dasharray:none;stroke-opacity:1"
       d="m 178.07069,294.53043 26.22185,27.98237 3.13432,-40.75538 z"
       id="path25"
       sodipodi:nodetypes="cccc" />
    <path
       style="fill:#010101;fill-opacity:1;stroke:#000000;stroke-width:0;stroke-dasharray:none;stroke-opacity:1"
       d="M 1007.5646,75.886666 973.75366,24.794653 h -34.56224 l 36.06495,15.027063 29.30273,33.059538 6.7622,8.264884 z"
       id="path26" />
    <path
       style="fill:#010101;fill-opacity:1;stroke:#000000;stroke-width:0;stroke-dasharray:none;stroke-opacity:1"
       d="m 286.26554,394.46039 -35.31359,-10.51894 24.0433,21.03789 17.97907,6.70878 4.76595,-5.51729 z"
       id="path27"
       sodipodi:nodetypes="cccccc" />
    <path
       style="fill:#010101;fill-opacity:1;stroke:#000000;stroke-width:0;stroke-dasharray:none;stroke-opacity:1"
       d="m 713.78548,638.65016 -55.60014,0.75136 59.3569,-8.26489 z"
       id="path28" />
    <path
       style="fill:#010101;fill-opacity:1;stroke:#000000;stroke-width:0;stroke-dasharray:none;stroke-opacity:1"
       d="m 851.12161,127.50885 10.62573,-20.1889 2.12515,-15.938604 -9.56316,-9.563164 z"
       id="path29" />
    <path
       style="fill:#c80000;fill-opacity:1;stroke:#000000;stroke-width:0;stroke-dasharray:none;stroke-opacity:1"
       d="M 233.76623,42.502952 253.95514,85.005903 965.87957,83.943329 964.817,40.377804 Z"
       id="path30"
       sodipodi:nodetypes="ccccc" />
    <path
       style="fill:#c80000;fill-opacity:1;stroke:#000000;stroke-width:0;stroke-dasharray:none;stroke-opacity:1"
       d="M 82.880756,250.76741 277.33176,60.566706 232.70366,43.565525 55.253837,215.70248 Z"
       id="path31"
       sodipodi:nodetypes="ccccc" />
    <path
       style="fill:#c80000;fill-opacity:1;stroke:#000000;stroke-width:0;stroke-dasharray:none;stroke-opacity:1"
       d="M 57.378985,219.95278 602.47934,857.49705 600.35419,784.17946 95.631641,197.63873 Z"
       id="path32"
       sodipodi:nodetypes="ccccc" />
    <path
       style="fill:#c80000;fill-opacity:1;stroke:#000000;stroke-width:0;stroke-dasharray:none;stroke-opacity:1"
       d="M 1108.2645,242.26682 949.94097,85.005904 l 11.68831,-41.440379 5.31287,-2.125148 178.51235,175.324673 -43.5655,48.8784 z"
       id="path33"
       sodipodi:nodetypes="ccccccc" />
    <path
       style="fill:#c80000;fill-opacity:1;stroke:#000000;stroke-width:0;stroke-dasharray:none;stroke-opacity:1"
       d="m 601.41677,851.12161 529.16173,-621.60567 -38.2526,-21.25148 -4.2503,7.43802 -494.09685,574.85242 z"
       id="path34" />
    <path
       style="fill:#c80000;fill-opacity:1;stroke:#000000;stroke-width:0;stroke-dasharray:none;stroke-opacity:1"
       d="M 1139.0791,225.26564 601.41677,854.30933 599.29162,806.49351 1136.954,212.51476 Z"
       id="path35"
       sodipodi:nodetypes="ccccc" />
    <path
       style="fill:#c80000;fill-opacity:1;stroke:#000000;stroke-width:0;stroke-dasharray:none;stroke-opacity:1"
       d="m 345.33648,82.880756 -60.5667,56.316414 -38.25266,48.87839 c -11.21497,17.99322 -23.53313,37.13732 -31.25478,59.7509 l -9.12302,32.69302 -4.2503,43.56553 47.81582,65.87957 155.13577,-308.146398 z"
       id="path36"
       sodipodi:nodetypes="ccccccccc" />
    <path
       style="fill:#c80000;fill-opacity:1;stroke:#000000;stroke-width:0;stroke-dasharray:none;stroke-opacity:1"
       d="m 279.45691,144.51004 -32.93979,40.3778 105.1948,72.25502 z"
       id="path37"
       sodipodi:nodetypes="cccc" />
    <path
       style="fill:#c80000;fill-opacity:1;stroke:#000000;stroke-width:0;stroke-dasharray:none;stroke-opacity:1"
       d="m 311.33412,231.64108 553.60094,95.63165 54.19127,30.81464 28.68949,26.56434 -92.44392,98.81936 42.50295,-32.93978 -641.79457,-66.94215 z"
       id="path38"
       sodipodi:nodetypes="cccccccc" />
    <path
       style="fill:#c80000;fill-opacity:1;stroke:#000000;stroke-width:0;stroke-dasharray:none;stroke-opacity:1"
       d="m 867.06021,71.192444 1.06258,148.760326 105.1948,3.18773 V 96.694215 l -19.12633,-30.81464 z"
       id="path39" />
    <path
       style="fill:#c80000;fill-opacity:1;stroke:#000000;stroke-width:0;stroke-dasharray:none;stroke-opacity:1"
       d="m 806.49351,146.63518 66.94215,1.06258 -4.2503,73.31759 -64.20009,-1.62609 c -7.93196,-36.06649 -36.05828,-74.6485 -45.93934,-84.68875 l -30.91076,-19.90935 -81.02773,-36.1607 52.06611,-20.188902 69.0673,25.501771 43.56553,31.877211 25.50177,29.75207 z"
       id="path40"
       sodipodi:nodetypes="cccccccccccc" />
    <path
       style="fill:#c80000;fill-opacity:1;stroke:#000000;stroke-width:0;stroke-dasharray:none;stroke-opacity:1"
       d="m 270.95632,318.77214 -21.25148,69.06729 31.87721,-11.68831 -13.81345,-61.62928 2.12514,36.12751 30.81464,-4.25029 z"
       id="path41" />
    <path
       style="fill:#c80000;fill-opacity:1;stroke:#000000;stroke-width:0;stroke-dasharray:none;stroke-opacity:1"
       d="m 792.68005,440.96812 28.42385,17.00119 10.3751,12.07676 2.64142,14.48758 c 0,0 7.43802,8.50059 1e-5,20.1889 -7.43802,11.68831 -13.81346,20.72019 -13.81346,20.72019 l -51.00355,41.97166 -399.52774,-41.44037 73.31759,75.44274 314.52184,13.81345 139.19717,-160.44864 -131.75915,-46.75324 150.88548,43.56552 -28.6895,38.25266 -111.57024,-80.75561 z"
       id="path42"
       sodipodi:nodetypes="ccccsccccccccccc" />
    <path
       style="fill:#c80000;fill-opacity:1;stroke:#000000;stroke-width:0;stroke-dasharray:none;stroke-opacity:1"
       d="m 810.7438,429.27981 54.19126,54.19126 23.37663,-41.44037 z"
       id="path43" />
    <path
       style="fill:#c80000;fill-opacity:1;stroke:#000000;stroke-width:0;stroke-dasharray:none;stroke-opacity:1"
       d="m 904.2503,406.96576 -21.51713,70.66116 -64.817,-20.98583 z"
       id="path44"
       sodipodi:nodetypes="cccc" />
    <path
       style="fill:#c80000;fill-opacity:1;stroke:#000000;stroke-width:0;stroke-dasharray:none;stroke-opacity:1"
       d="m 818.18182,132.82172 40.3778,25.50177 -52.06611,-4.25029 12.75088,-13.81346 z"
       id="path45" />
    <path
       style="fill:#c80000;fill-opacity:1;stroke:#000000;stroke-width:0;stroke-dasharray:none;stroke-opacity:1"
       d="m 833.05785,147.69776 20.1889,-27.62692 7.17237,-10.89139 3.98465,-25.23612 -6.90672,-1.062574 h 31.87721 l 3.18772,87.131054 -59.50413,-26.56435 z"
       id="path46"
       sodipodi:nodetypes="ccccccccc" />
    <path
       style="fill:#c80000;fill-opacity:1;stroke:#000000;stroke-width:0;stroke-dasharray:none;stroke-opacity:1"
       d="m 865.99764,102.00708 44.6281,54.19127 -73.31759,-3.18772 z"
       id="path47"
       sodipodi:nodetypes="cccc" />
    <path
       style="fill:#c80000;fill-opacity:1;stroke:#000000;stroke-width:0;stroke-dasharray:none;stroke-opacity:1"
       d="m 801.71193,103.86659 -6.90674,-6.109805 -32.93978,-18.063751 52.06611,59.504136 -1.59385,-22.84533 z"
       id="path48"
       sodipodi:nodetypes="cccccc" />
    <path
       style="fill:#c80000;fill-opacity:1;stroke:#000000;stroke-width:0;stroke-dasharray:none;stroke-opacity:1"
       d="m 975.44274,222.07792 -2.12515,-130.696574 -36.12751,8.50059 z"
       id="path49" />
    <path
       style="fill:#c80000;fill-opacity:1;stroke:#000000;stroke-width:0;stroke-dasharray:none;stroke-opacity:1"
       d="M 975.44274,223.14049 805.43093,222.07792 792.9434,183.15686 Z"
       id="path50"
       sodipodi:nodetypes="cccc" />
    <path
       style="fill:#c80000;fill-opacity:1;stroke:#000000;stroke-width:0;stroke-dasharray:none;stroke-opacity:1"
       d="M 889.37426,384.65171 729.98819,270.95632 540.47438,269.64145 490.90909,273.08146 Z"
       id="path51"
       sodipodi:nodetypes="ccccc" />
    <path
       style="fill:#c80000;fill-opacity:1;stroke:#000000;stroke-width:0;stroke-dasharray:none;stroke-opacity:1"
       d="m 457.11116,256.70825 c -19.91235,-2.12272 -40.37797,-12.54448 -60.77113,-21.87944 L 371.8419,201.01982 c -4.68092,-20.64411 1.63277,-51.96621 6.37544,-60.56671 21.26328,-13.87435 -8.63445,-4.4937 63.81336,-41.633749 9.63787,-3.636186 11.09362,-6.208698 54.32409,-14.211923 L 376.15112,57.378985 294.33294,251.82999 Z"
       id="path52"
       sodipodi:nodetypes="ccccccccc" />
    <path
       style="fill:#c80000;fill-opacity:1;stroke:#000000;stroke-width:0;stroke-dasharray:none;stroke-opacity:1"
       d="m 369.77568,148.76033 26.56434,-24.4392 32.93979,-20.1889 -30.81464,1.06258 z"
       id="path53" />
    <path
       style="fill:#c80000;fill-opacity:1;stroke:#000000;stroke-width:0;stroke-dasharray:none;stroke-opacity:1"
       d="m 346.39906,206.13932 21.25147,1.06257 -6.37544,-42.50295 26.56434,-35.06494 45.69068,-28.68949 -41.44038,-5.312869 -63.75443,86.068479 z"
       id="path54" />
    <path
       style="fill:#c80000;fill-opacity:1;stroke:#000000;stroke-width:0;stroke-dasharray:none;stroke-opacity:1"
       d="m 947.81582,382.52656 c -4.21827,-12.03182 -15.92984,-36.58618 -32.12951,-52.32392 -16.83047,-12.36346 -38.50338,-23.77312 -46.52859,-27.50908 l -31.42051,-11.37157 c -19.8886,-5.42227 -43.61856,-12.36215 -55.89286,-14.37143 -36.45368,-8.03058 -39.89253,-7.21789 -49.73101,-8.11939 H 612.0425 l -66.94214,-0.75135 219.95277,78.31924 z"
       id="path55"
       sodipodi:nodetypes="cccccccccc" />
    <path
       style="fill:#c80000;fill-opacity:1;stroke:#000000;stroke-width:0;stroke-dasharray:none;stroke-opacity:1"
       d="m 792.94569,151.68241 c -14.16936,-8.49845 -47.39312,-22.99737 -58.7072,-35.06493 -11.30981,-5.7793 -35.16921,-14.52555 -56.45638,-21.302589 l -26.92896,-8.060457 -41.99837,-6.498826 102.00709,-7.438017 57.37898,49.940969 z"
       id="path56"
       sodipodi:nodetypes="cccccccc" />
    <path
       style="fill:#c80000;fill-opacity:1;stroke:#000000;stroke-width:0;stroke-dasharray:none;stroke-opacity:1"
       d="m 678.98465,565.28926 26.2987,-10.62574 11.15702,-0.53129 c 20.41643,6.13675 103.03982,-14.80661 117.68006,-52.86305 0.89497,-8.45235 0.0214,-24.29184 -1.59386,-30.54899 l 21.78276,38.25266 -122.19599,97.75678 z"
       id="path57"
       sodipodi:nodetypes="cccccccc" />
    <path
       style="fill:#c80000;fill-opacity:1;stroke:#000000;stroke-width:0;stroke-dasharray:none;stroke-opacity:1"
       d="m 447.34357,600.35419 52.06611,19.12633 71.19245,9.56316 51.00353,4.2503 56.31642,-6.37544 68.00472,-15.93861 -48.87839,15.93861 61.62928,-28.6895 v 22.31405 L 650.29516,602.47934 Z"
       id="path58"
       sodipodi:nodetypes="ccccccccccc" />
    <path
       style="fill:#c80000;fill-opacity:1;stroke:#000000;stroke-width:0;stroke-dasharray:none;stroke-opacity:1"
       d="m 716.17473,557.85124 c -35.00929,-2.68473 -67.68957,-5.79723 -108.38252,-7.43802 l -36.12751,-2.12514 -26.56435,-34.00237 -66.94214,-15.9386 -56.31642,-2.12515 -57.37898,28.68949 133.8843,32.93979 z"
       id="path59"
       sodipodi:nodetypes="ccccccccc" />
    <path
       style="fill:#c80000;fill-opacity:1;stroke:#000000;stroke-width:0;stroke-dasharray:none;stroke-opacity:1"
       d="m 253.95514,380.40142 573.25856,49.67532 c -58.35302,17.17384 -236.77686,-5.87598 -294.86423,-8.23495 -52.07318,-5.8369 -83.7302,-4.62568 -111.57025,-9.56316 z"
       id="path60"
       sodipodi:nodetypes="ccccc" />
    <path
       style="fill:#c80000;fill-opacity:1;stroke:#000000;stroke-width:0;stroke-dasharray:none;stroke-opacity:1"
       d="m 468.59504,399.52774 -28.37274,14.87604 c -27.7255,-1.805 -61.18368,-6.66321 -90.63552,-11.68832 L 218.8902,384.65171 333.64817,360.21251 Z"
       id="path61"
       sodipodi:nodetypes="cccccc" />
    <path
       style="fill:#c80000;fill-opacity:1;stroke:#000000;stroke-width:0;stroke-dasharray:none;stroke-opacity:1"
       d="m 828.27627,464.34474 c -6.20937,-7.43654 -27.31867,-18.0724 -51.53483,-27.62691 l 71.19244,25.50177 z"
       id="path62"
       sodipodi:nodetypes="cccc" />
    <path
       style="fill:#c80000;fill-opacity:1;stroke:#000000;stroke-width:0;stroke-dasharray:none;stroke-opacity:1"
       d="m 789.49232,443.8902 c -76.82485,-13.34495 -40.23328,-5.1544 -48.61275,-7.9693 l 92.17828,-15.14168 21.25148,53.12869 -18.06376,-6.37544 C 825.25614,456.56204 806.12998,449.2124 789.49232,443.8902 Z"
       id="path63"
       sodipodi:nodetypes="cccccc" />
    <path
       style="fill:#c80000;fill-opacity:1;stroke:#000000;stroke-width:0;stroke-dasharray:none;stroke-opacity:1"
       d="m 579.10272,553.60094 -49.94098,-51.00354 -41.44037,-6.37544 -63.75443,-1.06257 40.37781,28.68949 110.50767,28.68949 z"
       id="path64"
       sodipodi:nodetypes="ccccccc" />
    <path
       style="fill:#c80000;fill-opacity:1;stroke:#000000;stroke-width:0;stroke-dasharray:none;stroke-opacity:1"
       d="m 589.78738,550.59001 -57.90569,-45.63729 -12.28311,13.58329 70.12987,63.75443 z"
       id="path65"
       sodipodi:nodetypes="ccccc" />
    <path
       style="fill:#c80000;fill-opacity:1;stroke:#000000;stroke-width:0;stroke-dasharray:none;stroke-opacity:1"
       d="m 675.79693,554.66352 53.39433,-3.71901 45.15938,-9.03188 c 15.30037,-3.59696 34.99069,-10.33598 42.08684,-15.51517 8.9326,-6.51954 21.89796,-14.57651 27.24611,-21.67491 l 10.62574,23.37662 -129.63401,42.50296 z"
       id="path66"
       sodipodi:nodetypes="cccscccc" />
    <path
       style="fill:#010101;fill-opacity:1;stroke:#000000;stroke-width:0;stroke-dasharray:none;stroke-opacity:1"
       d="m 201.88902,317.70956 -2.12515,-24.43919 -12.75088,3.18772 z"
       id="path67" />
    <path
       style="fill:#010101;fill-opacity:1;stroke:#000000;stroke-width:0;stroke-dasharray:none;stroke-opacity:1"
       d="m 309.20897,415.46635 -3.18772,-15.93861 -30.81464,-3.18772 13.81346,11.68832 z"
       id="path68" />
    <path
       style="fill:#010101;fill-opacity:1;stroke:#000000;stroke-width:0;stroke-dasharray:none;stroke-opacity:1"
       d="m 600.35419,758.67769 -75.44274,-80.75561 76.50532,90.31877 z"
       id="path69" />
    <path
       style="fill:#010101;fill-opacity:1;stroke:#000000;stroke-width:0;stroke-dasharray:none;stroke-opacity:1"
       d="M 711.92444,629.04368 602.47934,758.67769 717.23731,632.2314 Z"
       id="path70" />
    <path
       style="fill:#010101;fill-opacity:1;stroke:#000000;stroke-width:0;stroke-dasharray:none;stroke-opacity:1"
       d="m 953.12869,350.64935 -15.93861,-22.31405 14.87604,36.12751 z"
       id="path71" />
    <path
       style="fill:#010101;fill-opacity:1;stroke:#000000;stroke-width:0;stroke-dasharray:none;stroke-opacity:1"
       d="m 850.05903,83.943329 14.87603,1.062574 -8.50059,19.126327 -7.43801,15.93861 -11.68831,18.06375 13.81346,-39.315228 z"
       id="path72" />
    <path
       style="fill:#010101;fill-opacity:1;stroke:#000000;stroke-width:0;stroke-dasharray:none;stroke-opacity:1"
       d="m 845.80874,95.631641 -44.6281,-5.312869 51.00354,9.563164 z"
       id="path73" />
    <path
       style="fill:#010101;fill-opacity:1;stroke:#000000;stroke-width:0;stroke-dasharray:none;stroke-opacity:1"
       d="m 603.54191,268.83117 -60.5667,-1.06257 v -6.37545 l 68.00472,-4.25029 z"
       id="path74" />
    <path
       style="fill:#010101;fill-opacity:1;stroke:#000000;stroke-width:0;stroke-dasharray:none;stroke-opacity:1"
       d="m 201.88902,318.77214 -27.62692,-36.12751 20.1889,6.37544 z"
       id="path75" />
    <path
       style="fill:#010101;fill-opacity:1;stroke:#000000;stroke-width:0;stroke-dasharray:none;stroke-opacity:1"
       d="m 311.00207,413.97211 -28.58988,-4.11748 8.73303,-6.07659 z"
       id="path76"
       sodipodi:nodetypes="cccc" />
    <path
       style="fill:#010101;fill-opacity:1;stroke:#000000;stroke-width:0;stroke-dasharray:none;stroke-opacity:1"
       d="m 819.24439,487.72137 -21.25147,-21.25148 7.43801,-6.37544 24.4392,19.12633 z"
       id="path77" />
    <path
       style="fill:#010101;fill-opacity:1;stroke:#000000;stroke-width:0;stroke-dasharray:none;stroke-opacity:1"
       d="m 623.73081,535.53719 77.56789,2.12515 58.44156,-10.62574 35.59623,-10.36009 23.9079,-15.14168 -5.31287,-18.06376 -20.1889,-22.31405 33.47108,11.95396 -4.78159,36.92444 -51.00354,23.37662 -132.82172,8.50059 z"
       id="path78"
       sodipodi:nodetypes="cccccccccccc" />
    <path
       style="fill:#010101;fill-opacity:1;stroke:#000000;stroke-width:0;stroke-dasharray:none;stroke-opacity:1"
       d="m 813.93152,503.65998 -5.31287,-38.25266 17.00118,13.81346 -5.31286,26.56434 z"
       id="path79" />
    <path
       style="fill:#010101;fill-opacity:1;stroke:#000000;stroke-width:0;stroke-dasharray:none;stroke-opacity:1"
       d="m 609.91736,745.9268 99.88193,-113.6954 13.81346,4.2503 -107.31995,114.75797 z"
       id="path80" />
    <path
       style="fill:#010101;fill-opacity:1;stroke:#000000;stroke-width:0;stroke-dasharray:none;stroke-opacity:1"
       d="M 702.36128,638.60685 592.91617,766.1157 617.35537,752.30224 719.36246,627.98111 Z"
       id="path81" />
    <path
       style="fill:#010101;fill-opacity:1;stroke:#000000;stroke-width:0;stroke-dasharray:none;stroke-opacity:1"
       d="M 520.66116,690.67296 444.15584,600.35419 482.4085,616.2928 Z"
       id="path82" />
    <path
       style="fill:#010101;fill-opacity:1;stroke:#000000;stroke-width:0;stroke-dasharray:none;stroke-opacity:1"
       d="m 579.10272,632.2314 h 76.50531 l 86.06848,-18.06375 -32.93979,19.12633 z"
       id="path83" />
    <path
       style="fill:#010101;fill-opacity:1;stroke:#000000;stroke-width:0;stroke-dasharray:none;stroke-opacity:1"
       d="m 239.0791,192.32586 21.25148,-25.50177 22.31405,-26.56435 39.31523,-38.25266 -27.62692,4.2503 -57.37898,73.31759 -32.93979,78.63046 -11.68831,47.81582 8.50059,12.75089 8.50059,-68.00473 z"
       id="path84" />
    <path
       style="fill:#c80000;fill-opacity:1;stroke:#000000;stroke-width:0;stroke-dasharray:none;stroke-opacity:1"
       d="m 196.10317,314.06561 22.54059,21.78924 -13.52435,11.2703 z"
       id="path85" />
    <path
       style="fill:#c80000;fill-opacity:1;stroke:#000000;stroke-width:0;stroke-dasharray:none;stroke-opacity:1"
       d="m 337.35756,92.416435 -23.3258,17.933505 -16.49592,16.62874 -15.77842,13.52436 -10.51894,13.52435 10.51894,4.50812 z"
       id="path86"
       sodipodi:nodetypes="ccccccc" />
    <path
       style="fill:#c80000;fill-opacity:1;stroke:#000000;stroke-width:0;stroke-dasharray:none;stroke-opacity:1"
       d="m 245.69247,184.83287 -9.76759,25.54601 -19.53518,36.8163 v 15.02706 l 32.30819,-6.01082 z"
       id="path87" />
    <path
       style="fill:#c80000;fill-opacity:1;stroke:#000000;stroke-width:0;stroke-dasharray:none;stroke-opacity:1"
       d="m 551.49319,268.04523 -67.62177,-4.32028 75.88666,28.55142 z"
       id="path88"
       sodipodi:nodetypes="cccc" />
    <path
       style="fill:#c80000;fill-opacity:1;stroke:#000000;stroke-width:0;stroke-dasharray:none;stroke-opacity:1"
       d="m 368.91439,153.27604 0.65743,20.66221 2.34798,36.44063 -32.30818,9.01623 z"
       id="path89"
       sodipodi:nodetypes="ccccc" />
    <path
       style="fill:#c80000;fill-opacity:1;stroke:#000000;stroke-width:0;stroke-dasharray:none;stroke-opacity:1"
       d="m 375.41875,148.58561 c 4.17028,-10.58039 11.02049,-18.40893 16.78759,-26.11505 l -20.28654,-6.76218 z"
       id="path90"
       sodipodi:nodetypes="cccc" />
    <path
       style="fill:#c80000;fill-opacity:1;stroke:#000000;stroke-width:0;stroke-dasharray:none;stroke-opacity:1"
       d="m 372.57056,160.16045 c 2.75845,-8.59748 9.37697,-20.01559 15.59382,-28.63571 l -38.03382,-5.29741 9.76759,38.31901 z"
       id="path91"
       sodipodi:nodetypes="ccccc" />
    <path
       style="fill:#c80000;fill-opacity:1;stroke:#000000;stroke-width:0;stroke-dasharray:none;stroke-opacity:1"
       d="m 982.01854,115.70838 -25.546,-17.28112 38.31901,-0.751353 z"
       id="path92" />
    <path
       style="fill:#c80000;fill-opacity:1;stroke:#000000;stroke-width:0;stroke-dasharray:none;stroke-opacity:1"
       d="m 686.10382,554.50643 -3.12382,-0.008 h -34.56225 l 84.90291,40.57307 z"
       id="path93"
       sodipodi:nodetypes="ccccc" />
    <path
       style="fill:#c80000;fill-opacity:1;stroke:#000000;stroke-width:0;stroke-dasharray:none;stroke-opacity:1"
       d="m 546.98508,516.93096 -15.77842,-12.02165 -4.50811,10.51894 21.03788,11.2703 z"
       id="path94" />
    <path
       style="fill:#c80000;fill-opacity:1;stroke:#000000;stroke-width:0;stroke-dasharray:none;stroke-opacity:1"
       d="m 470.34706,634.14204 -44.32983,-57.10283 45.83254,92.41643 z"
       id="path95" />
    <path
       style="fill:#c80000;fill-opacity:1;stroke:#000000;stroke-width:0;stroke-dasharray:none;stroke-opacity:1"
       d="m 490.6336,615.35822 -63.86502,-21.78925 77.38937,-21.78924 z"
       id="path96" />
    <path
       style="fill:#c80000;fill-opacity:1;stroke:#000000;stroke-width:0;stroke-dasharray:none;stroke-opacity:1"
       d="m 690.49353,621.36904 78.14072,-6.76218 -9.01623,-50.34066 -126.97868,39.07037 z"
       id="path97" />
    <path
       style="fill:#c80000;fill-opacity:1;stroke:#000000;stroke-width:0;stroke-dasharray:none;stroke-opacity:1"
       d="m 677.72053,555.24996 -65.17989,-1.69054 -48.65011,-10.70678 81.52181,25.92168 -78.89208,1.50271 13.52437,-21.03789 52.59471,24.79465 z"
       id="path98"
       sodipodi:nodetypes="cccccccc" />
    <path
       style="fill:#c80000;fill-opacity:1;stroke:#000000;stroke-width:0;stroke-dasharray:none;stroke-opacity:1"
       d="m 691.24488,622.12039 57.85419,-6.76217 8.26489,-23.29195 z"
       id="path99" />
    <path
       style="fill:#c80000;fill-opacity:1;stroke:#000000;stroke-width:0;stroke-dasharray:none;stroke-opacity:1"
       d="m 721.29901,616.86092 -35.3136,9.76759 -21.03789,-14.27571 83.4002,-21.03788 z"
       id="path100" />
    <path
       style="fill:#c80000;fill-opacity:1;stroke:#000000;stroke-width:0;stroke-dasharray:none;stroke-opacity:1"
       d="m 562.7635,601.83386 -84.15155,9.76759 -48.08661,-14.27571 78.14073,-37.56766 z"
       id="path101" />
    <path
       style="fill:#c80000;fill-opacity:1;stroke:#000000;stroke-width:0;stroke-dasharray:none;stroke-opacity:1"
       d="m 747.59637,616.10957 -78.14073,11.2703 -20.28653,-73.63261 12.02165,-0.75135 87.15696,3.75676 z"
       id="path102" />
    <path
       style="fill:#c80000;fill-opacity:1;stroke:#000000;stroke-width:0;stroke-dasharray:none;stroke-opacity:1"
       d="m 975.44274,223.27332 -1.06257,-51.40201 -47.81582,28.15821 9.56316,22.57969 z"
       id="path103"
       sodipodi:nodetypes="ccccc" />
    <path
       style="fill:#c80000;fill-opacity:1;stroke:#000000;stroke-width:0;stroke-dasharray:none;stroke-opacity:1"
       d="m 833.3235,153.80756 -25.50178,-20.45455 -7.43801,9.03188 z"
       id="path104" />
    <path
       style="fill:#c80000;fill-opacity:1;stroke:#000000;stroke-width:0;stroke-dasharray:none;stroke-opacity:1"
       d="m 814.46281,164.69894 -21.51712,-33.47108 23.64227,6.90673 5.31287,11.42267 23.37662,-7.17237 -6.1098,15.67296 -25.23613,8.76624 -0.53128,-2.65644 2.12514,2.65644 -2.39079,-3.71901 z"
       id="path105" />
    <path
       style="fill:#c80000;fill-opacity:1;stroke:#000000;stroke-width:0;stroke-dasharray:none;stroke-opacity:1"
       d="m 828.27628,517.2078 -11.42268,13.01652 4.2503,6.1098 21.25147,-24.17355 z"
       id="path106"
       sodipodi:nodetypes="ccccc" />
    <path
       style="fill:#c80000;fill-opacity:1;stroke:#000000;stroke-width:0;stroke-dasharray:none;stroke-opacity:1"
       d="m 233.567,42.569363 -10.62574,10.559327 4.05107,2.855667 9.36393,-12.418832 z"
       id="path107" />
    <path
       style="fill:#c80000;fill-opacity:1;stroke:#000000;stroke-width:0;stroke-dasharray:none;stroke-opacity:1"
       d="m 240.40732,46.421193 -6.84032,-3.918241 5.37928,0.464876 0.99616,3.719008 0.13283,-0.265643 z"
       id="path108" />
    <path
       style="fill:#c80000;fill-opacity:1;stroke:#000000;stroke-width:0;stroke-dasharray:none;stroke-opacity:1"
       d="m 250.76411,181.82746 -5.44731,4.50812 1.5027,7.32569 z"
       id="path109" />
    <path
       style="fill:#c80000;fill-opacity:1;stroke:#000000;stroke-width:0;stroke-dasharray:none;stroke-opacity:1"
       d="m 190.20071,307.74793 15.2745,14.61039 -5.57852,5.71134 z"
       id="path110" />
    <path
       style="fill:#c80000;fill-opacity:1;stroke:#000000;stroke-width:0;stroke-dasharray:none;stroke-opacity:1"
       d="m 215.96812,247.57969 -2.39079,16.20425 18.06376,1.06258 z"
       id="path111" />
    <path
       style="fill:#010101;fill-opacity:1;stroke:#000000;stroke-width:0;stroke-dasharray:none;stroke-opacity:1"
       d="m 84.474616,252.36128 -39.31523,-49.67533 -14.344746,10.89138 -2.922078,2.39079 9.828808,9.29752 z"
       id="path112" />
    <path
       style="fill:#010101;fill-opacity:1;stroke:#000000;stroke-width:0;stroke-dasharray:none;stroke-opacity:1"
       d="m 187.46261,283.26013 -30.05413,-32.68386 2.25406,18.78383 32.68386,28.17574 -0.75135,-13.90003 z"
       id="path113" />
    <path
       style="fill:#010101;fill-opacity:1;stroke:#000000;stroke-width:0;stroke-dasharray:none;stroke-opacity:1"
       d="m 162.66795,256.96277 31.93251,31.18116 -6.3865,6.3865 z"
       id="path114" />
    <path
       style="fill:#010101;fill-opacity:1;stroke:#000000;stroke-width:0;stroke-dasharray:none;stroke-opacity:1"
       d="m 186.33558,281.00607 -55.60013,-61.61096 -2.62974,4.50812 z"
       id="path115" />
    <path
       style="fill:#010101;fill-opacity:1;stroke:#000000;stroke-width:0;stroke-dasharray:none;stroke-opacity:1"
       d="m 316.69535,85.278581 -63.86502,-0.751354 7.13785,16.529773 45.83255,-2.62974 z"
       id="path116" />
    <path
       style="fill:#010101;fill-opacity:1;stroke:#000000;stroke-width:0;stroke-dasharray:none;stroke-opacity:1"
       d="m 322.33049,104.06241 -10.89462,9.39191 -30.4298,30.80548 -23.57647,28.85872 c -0.0902,0.99542 -5.94547,7.73765 -16.1352,23.06798 l -0.11004,-15.86175 75.13531,-80.77046 z"
       id="path117"
       sodipodi:nodetypes="cccccccc" />
    <path
       style="fill:#010101;fill-opacity:1;stroke:#000000;stroke-width:0;stroke-dasharray:none;stroke-opacity:1"
       d="m 637.20083,84.973675 -33.92457,-4.350888 -27.49409,-0.796931 -32.4085,0.929752 -47.41736,3.586187 -30.81463,8.367768 156.99527,-2.390791 z"
       id="path118"
       sodipodi:nodetypes="cccccccc" />
    <path
       style="fill:#010101;fill-opacity:1;stroke:#000000;stroke-width:0;stroke-dasharray:none;stroke-opacity:1"
       d="m 464.34475,241.73554 -40.94132,-10.15891 c -9.03188,-7.16845 -17.12456,-13.46203 -26.15644,-22.87756 -3.97294,-4.76975 -6.15067,-8.03988 -8.15161,-13.8024 l -8.16268,0.0856 18.24054,37.69468 57.2022,17.02787 z"
       id="path119"
       sodipodi:nodetypes="cccccccc" />
    <path
       style="fill:#010101;fill-opacity:1;stroke:#000000;stroke-width:0;stroke-dasharray:none;stroke-opacity:1"
       d="m 398.99646,234.29752 -18.59504,-16.46989 -9.1258,-18.75065 28.78341,26.71995 v 12.75089 l -4.25029,-3.18773 z"
       id="path120"
       sodipodi:nodetypes="ccccccc" />
    <path
       style="fill:#010101;fill-opacity:1;stroke:#000000;stroke-width:0;stroke-dasharray:none;stroke-opacity:1"
       d="m 838.90201,115.82054 4.78158,-12.2196 -2.65643,-7.438012 14.34474,-4.781582 -2.65643,15.407324 -17.53247,20.1889 z"
       id="path121" />
    <path
       style="fill:#010101;fill-opacity:1;stroke:#000000;stroke-width:0;stroke-dasharray:none;stroke-opacity:1"
       d="m 865.20071,83.677686 -4.51594,23.907914 -3.98465,4.25029 -1.85951,-27.89256 z"
       id="path122"
       sodipodi:nodetypes="ccccc" />
    <path
       style="fill:#010101;fill-opacity:1;stroke:#000000;stroke-width:0;stroke-dasharray:none;stroke-opacity:1"
       d="m 953.12869,346.39906 c -6.39717,-8.5068 -13.00643,-17.0742 -22.84534,-26.56435 -9.28823,-9.94356 -15.93699,-14.11114 -27.32675,-21.4826 l -11.92955,-5.86533 c -15.92389,-8.67694 -16.74599,-7.11993 -23.96684,-9.84215 l -42.50295,-13.81346 -27.09563,-7.9693 -27.62692,-4.78159 c -20.0046,-4.07966 -28.40777,-5.03197 -34.146,-5.26591 l 109.58874,36.08055 56.91888,33.44198 37.1189,27.65602 19.65762,5.31287 z"
       id="path123"
       sodipodi:nodetypes="cccccccccccccc" />
    <path
       style="fill:#010101;fill-opacity:1;stroke:#000000;stroke-width:0;stroke-dasharray:none;stroke-opacity:1"
       d="m 635.95041,250.23613 -136.00944,-0.53129 c -15.36152,-3.85573 -39.89671,-10.00487 -42.79165,-10.74396 l -24.78401,-6.85296 -14.77381,-2.06069 107.85124,28.68949 112.63282,-3.71901 z"
       id="path124"
       sodipodi:nodetypes="cccccccc" />
    <path
       style="fill:#010101;fill-opacity:1;stroke:#000000;stroke-width:0;stroke-dasharray:none;stroke-opacity:1"
       d="m 782.5856,194.451 -31.87722,-43.03423 -13.81346,-9.56317 17.53247,0.53129 26.03306,30.81464 3.18772,26.56434 z"
       id="path125" />
    <path
       style="fill:#010101;fill-opacity:1;stroke:#000000;stroke-width:0;stroke-dasharray:none;stroke-opacity:1"
       d="m 778.45869,196.57615 c -2.08357,-4.50807 -4.79169,-10.77534 -10.87804,-19.78653 -6.11791,-9.05379 -10.70758,-16.1441 -20.59128,-25.37285 l -12.21959,-11.68832 15.16931,-10.52906 c 7.22293,5.09191 28.33792,42.00462 32.74319,49.99533 l 22.42733,42.92744 z"
       id="path126"
       sodipodi:nodetypes="cccccccc" />
    <path
       style="fill:#010101;fill-opacity:1;stroke:#000000;stroke-width:0;stroke-dasharray:none;stroke-opacity:1"
       d="m 606.20388,533.41204 -40.38334,-23.90791 29.75207,32.4085 25.03589,-2.89767 z"
       id="path127"
       sodipodi:nodetypes="ccccc" />
    <path
       style="fill:#010101;fill-opacity:1;stroke:#000000;stroke-width:0;stroke-dasharray:none;stroke-opacity:1"
       d="m 814.46281,491.44038 -7.70366,22.31404 -7.43802,4.78159 11.95396,6.90673 12.2196,-26.56435 z"
       id="path128"
       sodipodi:nodetypes="cccccc" />
    <path
       style="fill:#010101;fill-opacity:1;stroke:#000000;stroke-width:0;stroke-dasharray:none;stroke-opacity:1"
       d="m 775.14758,453.18772 37.19008,23.37662 5.31287,-13.81345 z"
       id="path129" />
    <path
       style="fill:#010101;fill-opacity:1;stroke:#000000;stroke-width:0;stroke-dasharray:none;stroke-opacity:1"
       d="m 703.95514,635.95041 c 0,0 -110.50768,129.10272 -110.50768,128.04015 0,-1.06258 23.37663,-10.09446 23.37663,-10.09446 z"
       id="path130" />
    <path
       style="fill:#010101;fill-opacity:1;stroke:#000000;stroke-width:0;stroke-dasharray:none;stroke-opacity:1"
       d="m 566.35183,646.57615 28.15821,2.12515 h 18.06375 l 24.4392,-0.53129 19.65761,-1.06257 16.4699,-0.53129 17.53246,-7.43802 -209.85832,-12.21959 15.40732,7.9693 41.97166,6.90673 z"
       id="path131" />
    <path
       style="fill:#010101;fill-opacity:1;stroke:#000000;stroke-width:0;stroke-dasharray:none;stroke-opacity:1"
       d="m 637.54427,632.76269 -38.78394,0.53129 29.75207,12.2196 z"
       id="path132" />
    <path
       style="fill:#010101;fill-opacity:1;stroke:#000000;stroke-width:0;stroke-dasharray:none;stroke-opacity:1"
       d="m 709.79929,622.66824 -31.87721,3.71901 20.72019,9.56316 z"
       id="path133" />
    <path
       style="fill:#010101;fill-opacity:1;stroke:#000000;stroke-width:0;stroke-dasharray:none;stroke-opacity:1"
       d="m 543.50649,716.70602 -103.06965,-117.4144 20.72019,7.9693 z"
       id="path134" />
    <path
       style="fill:#010101;fill-opacity:1;stroke:#000000;stroke-width:0;stroke-dasharray:none;stroke-opacity:1"
       d="m 608.85478,846.34002 -13.81346,15.93861 8.50059,6.90673 40.90909,-52.5974 z"
       id="path135" />
    <path
       style="fill:#010101;fill-opacity:1;stroke:#000000;stroke-width:0;stroke-dasharray:none;stroke-opacity:1"
       d="m 417.00099,497.39577 14.65138,-1.87838 11.2703,0.75135 63.67718,1.69055 12.96084,4.13244 c 10.3311,4.19505 25.29151,15.27347 33.81089,21.41357 10.69812,8.29481 17.05074,15.18516 31.55683,23.47979 l 34.18657,2.25405 27.42439,3.38109 32.30819,1.87838 50.71633,-3.38109 -132.9895,-14.65138 -75.51099,-46.20822 -110.82459,-3.00541 z"
       id="path136"
       sodipodi:nodetypes="ccccccccccccccc" />
    <path
       style="fill:#ffeb00;fill-opacity:1;stroke:#000000;stroke-width:0;stroke-dasharray:none;stroke-opacity:1"
       d="m 295.39551,411.21606 30.81464,6.90673 -1.06257,13.81346 z"
       id="path137" />
    <path
       style="fill:#ffeb00;fill-opacity:1;stroke:#000000;stroke-width:0;stroke-dasharray:none;stroke-opacity:1"
       d="m 336.41528,418.24226 -42.08234,-7.0262 29.75207,21.78276 z"
       id="path138"
       sodipodi:nodetypes="cccc" />
    <path
       style="fill:#ffeb00;fill-opacity:1;stroke:#000000;stroke-width:0;stroke-dasharray:none;stroke-opacity:1"
       d="m 361.80638,485.59622 13.28217,16.4699 30.28335,-17.00118 11.1248,-4.78159 12.74535,-1.37379 74.41793,-1.81393 9.56316,2.65644 23.90791,7.9693 24.4392,15.40732 c 4.41194,3.50683 11.41551,9.60527 17.17796,14.4626 l 13.13209,9.50424 11.87615,5.753 16.46989,2.65644 22.15844,1.9373 24.38027,0.22007 h 22.31405 l 24.97049,-2.12515 22.31405,-2.12515 13.54782,-3.45336 11.95395,-3.45337 16.46989,-4.78158 26.82999,-12.2196 -422.10744,-65.34829 z"
       id="path139"
       sodipodi:nodetypes="cccccccccccccccccccccccc" />
    <path
       style="fill:#ffeb00;fill-opacity:1;stroke:#000000;stroke-width:0;stroke-dasharray:none;stroke-opacity:1"
       d="m 800.11806,471.25148 -8.50059,-6.37545 -11.15702,-4.78158 -22.31405,-3.71901 -82.88076,-5.31287 84.47462,29.22078 z"
       id="path140" />
    <path
       style="fill:#ffeb00;fill-opacity:1;stroke:#000000;stroke-width:0;stroke-dasharray:none;stroke-opacity:1"
       d="m 682.17237,642.85714 -59.50413,7.96931 56.31641,14.34474 1.06258,-22.84533 z"
       id="path141" />
    <path
       style="fill:#ffeb00;fill-opacity:1;stroke:#000000;stroke-width:0;stroke-dasharray:none;stroke-opacity:1"
       d="m 647.10744,647.63873 -48.8784,1.59386 -37.72137,-3.71901 -19.65761,-2.65644 -46.22196,-7.43801 105.1948,122.19598 102.00709,-119.53955 c 0,0 -68.53601,12.2196 -54.72255,9.56317 z"
       id="path142" />
    <path
       style="fill:#ffeb00;fill-opacity:1;stroke:#000000;stroke-width:0;stroke-dasharray:none;stroke-opacity:1"
       d="m 800.64935,470.72019 -4.78158,-3.71901 -10.62574,-4.78158 5.31287,19.65761 z"
       id="path143" />
    <path
       style="fill:#ffeb00;fill-opacity:1;stroke:#000000;stroke-width:0;stroke-dasharray:none;stroke-opacity:1"
       d="m 1007.8512,170.01181 -17.53243,-19.65762 4.78158,93.50649 -30.81464,1.59387 30.81464,17.53246 27.62695,-52.06611 z"
       id="path144" />
    <path
       style="fill:#ffeb00;fill-opacity:1;stroke:#000000;stroke-width:0;stroke-dasharray:none;stroke-opacity:1"
       d="M 514.28571,247.04841 Z"
       id="path145" />
    <path
       style="fill:#ffeb00;fill-opacity:1;stroke:#000000;stroke-width:0;stroke-dasharray:none;stroke-opacity:1"
       d="m 615.76151,246.51712 -107.85124,-1.06257 -10.40662,1.58833 3.66924,1.74948 40.93361,1.74641 z"
       id="path146"
       sodipodi:nodetypes="cccccc" />
    <path
       style="fill:#ffeb00;fill-opacity:1;stroke:#000000;stroke-width:0;stroke-dasharray:none;stroke-opacity:1"
       d="m 684.82881,214.10862 -44.30029,35.66068 -47.08106,0.99811 -56.34958,-0.71912 -0.49812,-6.18761 z"
       id="path147"
       sodipodi:nodetypes="cccccc" />
    <path
       style="fill:#ffeb00;fill-opacity:1;stroke:#000000;stroke-width:0;stroke-dasharray:none;stroke-opacity:1"
       d="m 1052.4793,211.98347 -59.50409,-60.5667 -3.18772,-2.12515 7.43801,60.5667 z"
       id="path148" />
    <path
       style="fill:#c80000;fill-opacity:1;stroke:#000000;stroke-width:0;stroke-dasharray:none;stroke-opacity:1"
       d="m 973.84888,243.86068 41.97162,-1.06257 -37.19004,24.4392 z"
       id="path149" />
    <path
       style="fill:#c80000;fill-opacity:1;stroke:#000000;stroke-width:0;stroke-dasharray:none;stroke-opacity:1"
       d="m 405.3719,239.0791 -16.77006,-13.17995 -14.54363,-16.91556 -3.49895,-19.94213 -18.84734,25.06716 25.50178,49.40968 28.1582,-2.65643 z"
       id="path150"
       sodipodi:nodetypes="cccccccc" />
    <path
       style="fill:#c80000;fill-opacity:1;stroke:#000000;stroke-width:0;stroke-dasharray:none;stroke-opacity:1"
       d="m 1136.954,228.45336 8.5005,-11.15702 -21.2514,-21.25148 1.5938,41.97167 z"
       id="path151" />
    <path
       style="fill:#ffeb00;fill-opacity:1;stroke:#000000;stroke-width:0;stroke-dasharray:none;stroke-opacity:1"
       d="m 996.16293,234.29752 -0.53129,9.56316 -44.09681,0.53129 13.28217,29.22078 41.4404,-10.62574 15.4073,-24.43919 z"
       id="path152" />
    <path
       style="fill:#010101;fill-opacity:1;stroke:#000000;stroke-width:0;stroke-dasharray:none;stroke-opacity:1"
       d="m 939.84652,243.3294 69.06728,1.06257 -6.9067,28.68949 z"
       id="path153" />
    <path
       style="fill:#010101;fill-opacity:1;stroke:#000000;stroke-width:0;stroke-dasharray:none;stroke-opacity:1"
       d="m 197.60587,311.81155 -5.25947,-26.29736 -61.61095,-68.37313 -4.50812,7.51353 z"
       id="path154" />
    <path
       style="fill:#010101;fill-opacity:1;stroke:#000000;stroke-width:0;stroke-dasharray:none;stroke-opacity:1"
       d="M 380.18469,506.41201 287.0169,402.72528 v 13.52436 z"
       id="path155" />
    <path
       style="fill:#010101;fill-opacity:1;stroke:#000000;stroke-width:0;stroke-dasharray:none;stroke-opacity:1"
       d="m 346.37379,488.37954 31.55684,19.53518 -8.26489,-11.2703 z"
       id="path156" />
    <path
       style="fill:#010101;fill-opacity:1;stroke:#000000;stroke-width:0;stroke-dasharray:none;stroke-opacity:1"
       d="M 1168.3541,211.13023 975.25637,26.29736 1156.3325,214.13564 Z"
       id="path157" />
    <path
       style="fill:#010101;fill-opacity:1;stroke:#000000;stroke-width:0;stroke-dasharray:none;stroke-opacity:1"
       d="m 722.05036,635.64475 24.79465,-21.03789 -36.8163,9.01624 z"
       id="path158" />
    <path
       style="fill:#010101;fill-opacity:1;stroke:#000000;stroke-width:0;stroke-dasharray:none;stroke-opacity:1"
       d="m 601.08251,876.07775 20.28653,-36.06495 h 12.02165 z"
       id="path159" />
    <path
       style="fill:#010101;fill-opacity:1;stroke:#000000;stroke-width:0;stroke-dasharray:none;stroke-opacity:1"
       d="m 287.0169,402.72528 94.67049,104.43808 -8.26488,2.25406 z"
       id="path160" />
    <path
       style="fill:#010101;fill-opacity:1;stroke:#000000;stroke-width:0;stroke-dasharray:none;stroke-opacity:1"
       d="M 292.27637,406.48204 380.93604,508.66607 281.75742,404.22799 Z"
       id="path161" />
    <path
       style="fill:#010101;fill-opacity:1;stroke:#000000;stroke-width:0;stroke-dasharray:none;stroke-opacity:1"
       d="m 291.52502,406.48204 96.92455,106.69215 z"
       id="path162" />
    <path
       style="fill:#010101;fill-opacity:1;stroke:#000000;stroke-width:0;stroke-dasharray:none;stroke-opacity:1"
       d="m 293.77907,408.7361 93.91915,102.93538 -96.1732,-97.6759 z"
       id="path163" />
    <path
       style="fill:#010101;fill-opacity:1;stroke:#000000;stroke-width:0;stroke-dasharray:none;stroke-opacity:1"
       d="m 364.21843,486.31331 20.85005,22.72844 -25.17033,-13.14868 z"
       id="path164"
       sodipodi:nodetypes="cccc" />
    <path
       style="fill:#010101;fill-opacity:1;stroke:#000000;stroke-width:0;stroke-dasharray:none;stroke-opacity:1"
       d="M 265.22766,94.670495 130.73545,228.41135 V 214.887 L 253.95736,93.919142 Z"
       id="path165" />
    <path
       style="fill:#ffeb00;fill-opacity:1;stroke:#000000;stroke-width:0;stroke-dasharray:none;stroke-opacity:1"
       d="m 919.17653,242.50867 110.64687,-1.32431 -38.31902,41.32442 z"
       id="path166"
       sodipodi:nodetypes="cccc" />
  </g>
</svg>
